<mxfile host="app.diagrams.net" agent="Mozilla/5.0 (Windows NT 10.0; Win64; x64) AppleWebKit/537.36 (KHTML, like Gecko) Chrome/135.0.0.0 Safari/537.36" version="26.2.14">
  <diagram name="Page-1" id="465x_GTs98OQlhK0ZteV">
    <mxGraphModel dx="3126" dy="1288" grid="0" gridSize="10" guides="1" tooltips="1" connect="1" arrows="1" fold="1" page="0" pageScale="1" pageWidth="850" pageHeight="1100" math="0" shadow="0">
      <root>
        <mxCell id="0" />
        <mxCell id="1" parent="0" />
        <mxCell id="1A1Fid1lJcvc5-gDURdy-104" style="edgeStyle=none;curved=1;rounded=0;orthogonalLoop=1;jettySize=auto;html=1;exitX=1;exitY=0.75;exitDx=0;exitDy=0;entryX=0;entryY=0.5;entryDx=0;entryDy=0;fontSize=12;startSize=8;endSize=8;endArrow=none;startFill=0;" edge="1" parent="1" source="1A1Fid1lJcvc5-gDURdy-1" target="1A1Fid1lJcvc5-gDURdy-103">
          <mxGeometry relative="1" as="geometry" />
        </mxCell>
        <mxCell id="1A1Fid1lJcvc5-gDURdy-147" value="1" style="edgeLabel;html=1;align=center;verticalAlign=middle;resizable=0;points=[];fontSize=12;" vertex="1" connectable="0" parent="1A1Fid1lJcvc5-gDURdy-104">
          <mxGeometry x="-0.2097" relative="1" as="geometry">
            <mxPoint as="offset" />
          </mxGeometry>
        </mxCell>
        <mxCell id="1A1Fid1lJcvc5-gDURdy-115" style="edgeStyle=none;curved=1;rounded=0;orthogonalLoop=1;jettySize=auto;html=1;exitX=0.75;exitY=1;exitDx=0;exitDy=0;entryX=0;entryY=0;entryDx=0;entryDy=0;fontSize=12;startSize=8;endSize=8;endArrow=none;startFill=0;" edge="1" parent="1" source="1A1Fid1lJcvc5-gDURdy-1" target="1A1Fid1lJcvc5-gDURdy-114">
          <mxGeometry relative="1" as="geometry" />
        </mxCell>
        <mxCell id="1A1Fid1lJcvc5-gDURdy-144" value="N" style="edgeLabel;html=1;align=center;verticalAlign=middle;resizable=0;points=[];fontSize=12;" vertex="1" connectable="0" parent="1A1Fid1lJcvc5-gDURdy-115">
          <mxGeometry x="-0.5564" y="-1" relative="1" as="geometry">
            <mxPoint as="offset" />
          </mxGeometry>
        </mxCell>
        <mxCell id="1A1Fid1lJcvc5-gDURdy-132" style="edgeStyle=none;curved=1;rounded=0;orthogonalLoop=1;jettySize=auto;html=1;exitX=0.25;exitY=1;exitDx=0;exitDy=0;entryX=1;entryY=0;entryDx=0;entryDy=0;fontSize=12;startSize=8;endSize=8;endArrow=none;startFill=0;" edge="1" parent="1" source="1A1Fid1lJcvc5-gDURdy-1" target="1A1Fid1lJcvc5-gDURdy-130">
          <mxGeometry relative="1" as="geometry" />
        </mxCell>
        <mxCell id="1A1Fid1lJcvc5-gDURdy-153" value="N" style="edgeLabel;html=1;align=center;verticalAlign=middle;resizable=0;points=[];fontSize=12;" vertex="1" connectable="0" parent="1A1Fid1lJcvc5-gDURdy-132">
          <mxGeometry x="-0.5613" y="-1" relative="1" as="geometry">
            <mxPoint x="-6" y="22" as="offset" />
          </mxGeometry>
        </mxCell>
        <mxCell id="1A1Fid1lJcvc5-gDURdy-1" value="User" style="whiteSpace=wrap;html=1;align=center;" vertex="1" parent="1">
          <mxGeometry x="56" y="202" width="100" height="40" as="geometry" />
        </mxCell>
        <mxCell id="1A1Fid1lJcvc5-gDURdy-2" value="Provider" style="whiteSpace=wrap;html=1;align=center;" vertex="1" parent="1">
          <mxGeometry x="86" y="563" width="100" height="40" as="geometry" />
        </mxCell>
        <mxCell id="1A1Fid1lJcvc5-gDURdy-3" value="Payment" style="whiteSpace=wrap;html=1;align=center;" vertex="1" parent="1">
          <mxGeometry x="-168" y="330" width="100" height="40" as="geometry" />
        </mxCell>
        <mxCell id="1A1Fid1lJcvc5-gDURdy-4" value="Order" style="whiteSpace=wrap;html=1;align=center;" vertex="1" parent="1">
          <mxGeometry x="182" y="372" width="100" height="40" as="geometry" />
        </mxCell>
        <mxCell id="1A1Fid1lJcvc5-gDURdy-122" style="edgeStyle=none;curved=1;rounded=0;orthogonalLoop=1;jettySize=auto;html=1;exitX=1;exitY=0.5;exitDx=0;exitDy=0;entryX=0;entryY=1;entryDx=0;entryDy=0;fontSize=12;startSize=8;endSize=8;endArrow=none;startFill=0;" edge="1" parent="1" source="1A1Fid1lJcvc5-gDURdy-5" target="1A1Fid1lJcvc5-gDURdy-121">
          <mxGeometry relative="1" as="geometry" />
        </mxCell>
        <mxCell id="1A1Fid1lJcvc5-gDURdy-156" value="N" style="edgeLabel;html=1;align=center;verticalAlign=middle;resizable=0;points=[];fontSize=12;" vertex="1" connectable="0" parent="1A1Fid1lJcvc5-gDURdy-122">
          <mxGeometry x="-0.533" y="1" relative="1" as="geometry">
            <mxPoint as="offset" />
          </mxGeometry>
        </mxCell>
        <mxCell id="1A1Fid1lJcvc5-gDURdy-5" value="Delivery" style="whiteSpace=wrap;html=1;align=center;" vertex="1" parent="1">
          <mxGeometry x="-177" y="510" width="100" height="40" as="geometry" />
        </mxCell>
        <mxCell id="1A1Fid1lJcvc5-gDURdy-107" style="edgeStyle=none;curved=1;rounded=0;orthogonalLoop=1;jettySize=auto;html=1;exitX=0.75;exitY=1;exitDx=0;exitDy=0;entryX=0.5;entryY=0;entryDx=0;entryDy=0;fontSize=12;startSize=8;endSize=8;endArrow=none;startFill=0;" edge="1" parent="1" source="1A1Fid1lJcvc5-gDURdy-6" target="1A1Fid1lJcvc5-gDURdy-106">
          <mxGeometry relative="1" as="geometry" />
        </mxCell>
        <mxCell id="1A1Fid1lJcvc5-gDURdy-148" value="M" style="edgeLabel;html=1;align=center;verticalAlign=middle;resizable=0;points=[];fontSize=12;" vertex="1" connectable="0" parent="1A1Fid1lJcvc5-gDURdy-107">
          <mxGeometry x="-0.2922" y="-1" relative="1" as="geometry">
            <mxPoint as="offset" />
          </mxGeometry>
        </mxCell>
        <mxCell id="1A1Fid1lJcvc5-gDURdy-6" value="Category" style="whiteSpace=wrap;html=1;align=center;" vertex="1" parent="1">
          <mxGeometry x="300" y="233" width="100" height="40" as="geometry" />
        </mxCell>
        <mxCell id="1A1Fid1lJcvc5-gDURdy-8" value="Item" style="whiteSpace=wrap;html=1;align=center;" vertex="1" parent="1">
          <mxGeometry x="485" y="366" width="100" height="40" as="geometry" />
        </mxCell>
        <mxCell id="1A1Fid1lJcvc5-gDURdy-12" value="Bank Details" style="shape=ext;margin=3;double=1;whiteSpace=wrap;html=1;align=center;" vertex="1" parent="1">
          <mxGeometry x="-224" y="202" width="98" height="40" as="geometry" />
        </mxCell>
        <mxCell id="1A1Fid1lJcvc5-gDURdy-17" style="edgeStyle=none;curved=1;rounded=0;orthogonalLoop=1;jettySize=auto;html=1;exitX=1;exitY=1;exitDx=0;exitDy=0;entryX=0;entryY=0;entryDx=0;entryDy=0;fontSize=12;startSize=8;endSize=8;" edge="1" parent="1" source="1A1Fid1lJcvc5-gDURdy-13" target="1A1Fid1lJcvc5-gDURdy-1">
          <mxGeometry relative="1" as="geometry" />
        </mxCell>
        <mxCell id="1A1Fid1lJcvc5-gDURdy-13" value="Fname" style="ellipse;whiteSpace=wrap;html=1;align=center;" vertex="1" parent="1">
          <mxGeometry x="-31" y="157" width="65" height="30" as="geometry" />
        </mxCell>
        <mxCell id="1A1Fid1lJcvc5-gDURdy-14" value="Email" style="ellipse;whiteSpace=wrap;html=1;align=center;" vertex="1" parent="1">
          <mxGeometry x="102" y="124" width="57" height="26" as="geometry" />
        </mxCell>
        <mxCell id="1A1Fid1lJcvc5-gDURdy-18" style="edgeStyle=none;curved=1;rounded=0;orthogonalLoop=1;jettySize=auto;html=1;exitX=0.5;exitY=1;exitDx=0;exitDy=0;entryX=0.25;entryY=0;entryDx=0;entryDy=0;fontSize=12;startSize=8;endSize=8;" edge="1" parent="1" source="1A1Fid1lJcvc5-gDURdy-15" target="1A1Fid1lJcvc5-gDURdy-1">
          <mxGeometry relative="1" as="geometry" />
        </mxCell>
        <mxCell id="1A1Fid1lJcvc5-gDURdy-15" value="Lname" style="ellipse;whiteSpace=wrap;html=1;align=center;" vertex="1" parent="1">
          <mxGeometry x="34" y="137" width="64" height="31" as="geometry" />
        </mxCell>
        <mxCell id="1A1Fid1lJcvc5-gDURdy-21" style="edgeStyle=none;curved=1;rounded=0;orthogonalLoop=1;jettySize=auto;html=1;exitX=0;exitY=1;exitDx=0;exitDy=0;entryX=1;entryY=0;entryDx=0;entryDy=0;fontSize=12;startSize=8;endSize=8;" edge="1" parent="1" source="1A1Fid1lJcvc5-gDURdy-16" target="1A1Fid1lJcvc5-gDURdy-1">
          <mxGeometry relative="1" as="geometry" />
        </mxCell>
        <mxCell id="1A1Fid1lJcvc5-gDURdy-16" value="Password" style="ellipse;whiteSpace=wrap;html=1;align=center;" vertex="1" parent="1">
          <mxGeometry x="185" y="159" width="66" height="28" as="geometry" />
        </mxCell>
        <mxCell id="1A1Fid1lJcvc5-gDURdy-20" style="edgeStyle=none;curved=1;rounded=0;orthogonalLoop=1;jettySize=auto;html=1;exitX=0.5;exitY=1;exitDx=0;exitDy=0;entryX=0.66;entryY=0;entryDx=0;entryDy=0;entryPerimeter=0;fontSize=12;startSize=8;endSize=8;" edge="1" parent="1" source="1A1Fid1lJcvc5-gDURdy-14" target="1A1Fid1lJcvc5-gDURdy-1">
          <mxGeometry relative="1" as="geometry" />
        </mxCell>
        <mxCell id="1A1Fid1lJcvc5-gDURdy-22" value="ConfNum" style="ellipse;whiteSpace=wrap;html=1;align=center;" vertex="1" parent="1">
          <mxGeometry x="-230" y="150" width="57" height="29" as="geometry" />
        </mxCell>
        <mxCell id="1A1Fid1lJcvc5-gDURdy-24" value="U-ID" style="ellipse;whiteSpace=wrap;html=1;align=center;fontStyle=4" vertex="1" parent="1">
          <mxGeometry x="163" y="129" width="57" height="28" as="geometry" />
        </mxCell>
        <mxCell id="1A1Fid1lJcvc5-gDURdy-26" style="edgeStyle=none;curved=1;rounded=0;orthogonalLoop=1;jettySize=auto;html=1;exitX=0;exitY=1;exitDx=0;exitDy=0;entryX=0.88;entryY=-0.05;entryDx=0;entryDy=0;entryPerimeter=0;fontSize=12;startSize=8;endSize=8;" edge="1" parent="1" source="1A1Fid1lJcvc5-gDURdy-24" target="1A1Fid1lJcvc5-gDURdy-1">
          <mxGeometry relative="1" as="geometry" />
        </mxCell>
        <mxCell id="1A1Fid1lJcvc5-gDURdy-31" style="edgeStyle=none;curved=1;rounded=0;orthogonalLoop=1;jettySize=auto;html=1;exitX=1;exitY=1;exitDx=0;exitDy=0;entryX=0;entryY=0;entryDx=0;entryDy=0;fontSize=12;startSize=8;endSize=8;" edge="1" parent="1" source="1A1Fid1lJcvc5-gDURdy-27" target="1A1Fid1lJcvc5-gDURdy-12">
          <mxGeometry relative="1" as="geometry" />
        </mxCell>
        <mxCell id="1A1Fid1lJcvc5-gDURdy-27" value="&lt;span style=&quot;border-bottom: 1px dotted&quot;&gt;A_NUM&lt;/span&gt;" style="ellipse;whiteSpace=wrap;html=1;align=center;" vertex="1" parent="1">
          <mxGeometry x="-299" y="157" width="64" height="34" as="geometry" />
        </mxCell>
        <mxCell id="1A1Fid1lJcvc5-gDURdy-28" value="End date" style="ellipse;whiteSpace=wrap;html=1;align=center;" vertex="1" parent="1">
          <mxGeometry x="-159" y="149" width="69" height="31" as="geometry" />
        </mxCell>
        <mxCell id="1A1Fid1lJcvc5-gDURdy-29" style="edgeStyle=none;curved=1;rounded=0;orthogonalLoop=1;jettySize=auto;html=1;exitX=0.5;exitY=1;exitDx=0;exitDy=0;entryX=0.684;entryY=0.1;entryDx=0;entryDy=0;entryPerimeter=0;fontSize=12;startSize=8;endSize=8;" edge="1" parent="1" source="1A1Fid1lJcvc5-gDURdy-28" target="1A1Fid1lJcvc5-gDURdy-12">
          <mxGeometry relative="1" as="geometry" />
        </mxCell>
        <mxCell id="1A1Fid1lJcvc5-gDURdy-30" style="edgeStyle=none;curved=1;rounded=0;orthogonalLoop=1;jettySize=auto;html=1;exitX=0.5;exitY=1;exitDx=0;exitDy=0;entryX=0.388;entryY=0.025;entryDx=0;entryDy=0;entryPerimeter=0;fontSize=12;startSize=8;endSize=8;" edge="1" parent="1" source="1A1Fid1lJcvc5-gDURdy-22" target="1A1Fid1lJcvc5-gDURdy-12">
          <mxGeometry relative="1" as="geometry" />
        </mxCell>
        <mxCell id="1A1Fid1lJcvc5-gDURdy-44" style="edgeStyle=none;curved=1;rounded=0;orthogonalLoop=1;jettySize=auto;html=1;exitX=0.5;exitY=1;exitDx=0;exitDy=0;entryX=0.5;entryY=1;entryDx=0;entryDy=0;fontSize=12;startSize=8;endSize=8;" edge="1" parent="1" source="1A1Fid1lJcvc5-gDURdy-32" target="1A1Fid1lJcvc5-gDURdy-2">
          <mxGeometry relative="1" as="geometry" />
        </mxCell>
        <mxCell id="1A1Fid1lJcvc5-gDURdy-32" value="Name" style="ellipse;whiteSpace=wrap;html=1;align=center;" vertex="1" parent="1">
          <mxGeometry x="136" y="642" width="62" height="25" as="geometry" />
        </mxCell>
        <mxCell id="1A1Fid1lJcvc5-gDURdy-33" value="Bu-ID" style="ellipse;whiteSpace=wrap;html=1;align=center;fontStyle=4;" vertex="1" parent="1">
          <mxGeometry x="296" y="643.5" width="64" height="22" as="geometry" />
        </mxCell>
        <mxCell id="1A1Fid1lJcvc5-gDURdy-35" value="Business Name" style="ellipse;whiteSpace=wrap;html=1;align=center;" vertex="1" parent="1">
          <mxGeometry x="217" y="676" width="91" height="35" as="geometry" />
        </mxCell>
        <mxCell id="1A1Fid1lJcvc5-gDURdy-45" style="edgeStyle=none;curved=1;rounded=0;orthogonalLoop=1;jettySize=auto;html=1;exitX=0.5;exitY=1;exitDx=0;exitDy=0;entryX=0.32;entryY=0.95;entryDx=0;entryDy=0;fontSize=12;startSize=8;endSize=8;entryPerimeter=0;" edge="1" parent="1" source="1A1Fid1lJcvc5-gDURdy-36" target="1A1Fid1lJcvc5-gDURdy-2">
          <mxGeometry relative="1" as="geometry" />
        </mxCell>
        <mxCell id="1A1Fid1lJcvc5-gDURdy-36" value="P-ID" style="ellipse;whiteSpace=wrap;html=1;align=center;fontStyle=4" vertex="1" parent="1">
          <mxGeometry x="66" y="645" width="62" height="25" as="geometry" />
        </mxCell>
        <mxCell id="1A1Fid1lJcvc5-gDURdy-42" style="edgeStyle=none;curved=1;rounded=0;orthogonalLoop=1;jettySize=auto;html=1;exitX=0;exitY=0.5;exitDx=0;exitDy=0;entryX=0.75;entryY=1;entryDx=0;entryDy=0;fontSize=12;startSize=8;endSize=8;" edge="1" parent="1" source="1A1Fid1lJcvc5-gDURdy-39" target="1A1Fid1lJcvc5-gDURdy-2">
          <mxGeometry relative="1" as="geometry" />
        </mxCell>
        <mxCell id="1A1Fid1lJcvc5-gDURdy-39" value="Business Info" style="ellipse;shape=doubleEllipse;margin=3;whiteSpace=wrap;html=1;align=center;" vertex="1" parent="1">
          <mxGeometry x="190.5" y="613" width="83" height="37" as="geometry" />
        </mxCell>
        <mxCell id="1A1Fid1lJcvc5-gDURdy-40" style="edgeStyle=none;curved=1;rounded=0;orthogonalLoop=1;jettySize=auto;html=1;exitX=0;exitY=0.5;exitDx=0;exitDy=0;entryX=0.964;entryY=0.351;entryDx=0;entryDy=0;entryPerimeter=0;fontSize=12;startSize=8;endSize=8;" edge="1" parent="1" source="1A1Fid1lJcvc5-gDURdy-33" target="1A1Fid1lJcvc5-gDURdy-39">
          <mxGeometry relative="1" as="geometry" />
        </mxCell>
        <mxCell id="1A1Fid1lJcvc5-gDURdy-41" style="edgeStyle=none;curved=1;rounded=0;orthogonalLoop=1;jettySize=auto;html=1;exitX=0.22;exitY=0.086;exitDx=0;exitDy=0;entryX=0.5;entryY=1;entryDx=0;entryDy=0;fontSize=12;startSize=8;endSize=8;exitPerimeter=0;" edge="1" parent="1" source="1A1Fid1lJcvc5-gDURdy-35" target="1A1Fid1lJcvc5-gDURdy-39">
          <mxGeometry relative="1" as="geometry" />
        </mxCell>
        <mxCell id="1A1Fid1lJcvc5-gDURdy-49" style="edgeStyle=none;curved=1;rounded=0;orthogonalLoop=1;jettySize=auto;html=1;exitX=0;exitY=0.5;exitDx=0;exitDy=0;entryX=1;entryY=0.5;entryDx=0;entryDy=0;fontSize=12;startSize=8;endSize=8;" edge="1" parent="1" source="1A1Fid1lJcvc5-gDURdy-46" target="1A1Fid1lJcvc5-gDURdy-6">
          <mxGeometry relative="1" as="geometry" />
        </mxCell>
        <mxCell id="1A1Fid1lJcvc5-gDURdy-46" value="Cat-ID" style="ellipse;whiteSpace=wrap;html=1;align=center;fontStyle=4" vertex="1" parent="1">
          <mxGeometry x="423" y="257" width="59" height="31" as="geometry" />
        </mxCell>
        <mxCell id="1A1Fid1lJcvc5-gDURdy-48" style="edgeStyle=none;curved=1;rounded=0;orthogonalLoop=1;jettySize=auto;html=1;exitX=0;exitY=0.5;exitDx=0;exitDy=0;entryX=1;entryY=0.25;entryDx=0;entryDy=0;fontSize=12;startSize=8;endSize=8;" edge="1" parent="1" source="1A1Fid1lJcvc5-gDURdy-52" target="1A1Fid1lJcvc5-gDURdy-6">
          <mxGeometry relative="1" as="geometry">
            <mxPoint x="423" y="228" as="sourcePoint" />
          </mxGeometry>
        </mxCell>
        <mxCell id="1A1Fid1lJcvc5-gDURdy-52" value="Type" style="ellipse;shape=doubleEllipse;margin=3;whiteSpace=wrap;html=1;align=center;" vertex="1" parent="1">
          <mxGeometry x="418" y="215" width="57" height="27" as="geometry" />
        </mxCell>
        <mxCell id="1A1Fid1lJcvc5-gDURdy-59" style="edgeStyle=none;curved=1;rounded=0;orthogonalLoop=1;jettySize=auto;html=1;exitX=0.5;exitY=0;exitDx=0;exitDy=0;entryX=0.5;entryY=1;entryDx=0;entryDy=0;fontSize=12;startSize=8;endSize=8;" edge="1" parent="1" source="1A1Fid1lJcvc5-gDURdy-53" target="1A1Fid1lJcvc5-gDURdy-110">
          <mxGeometry relative="1" as="geometry" />
        </mxCell>
        <mxCell id="1A1Fid1lJcvc5-gDURdy-53" value="price" style="ellipse;whiteSpace=wrap;html=1;align=center;" vertex="1" parent="1">
          <mxGeometry x="342" y="463" width="55" height="23" as="geometry" />
        </mxCell>
        <mxCell id="1A1Fid1lJcvc5-gDURdy-58" style="edgeStyle=none;curved=1;rounded=0;orthogonalLoop=1;jettySize=auto;html=1;exitX=1;exitY=0.5;exitDx=0;exitDy=0;entryX=0.36;entryY=0.925;entryDx=0;entryDy=0;fontSize=12;startSize=8;endSize=8;entryPerimeter=0;" edge="1" parent="1" source="1A1Fid1lJcvc5-gDURdy-54" target="1A1Fid1lJcvc5-gDURdy-4">
          <mxGeometry relative="1" as="geometry" />
        </mxCell>
        <mxCell id="1A1Fid1lJcvc5-gDURdy-54" value="Order-ID" style="ellipse;whiteSpace=wrap;html=1;align=center;fontStyle=4" vertex="1" parent="1">
          <mxGeometry x="143" y="456" width="58" height="25" as="geometry" />
        </mxCell>
        <mxCell id="1A1Fid1lJcvc5-gDURdy-55" value="Quantity" style="ellipse;whiteSpace=wrap;html=1;align=center;" vertex="1" parent="1">
          <mxGeometry x="413" y="456" width="56" height="25" as="geometry" />
        </mxCell>
        <mxCell id="1A1Fid1lJcvc5-gDURdy-57" style="edgeStyle=none;curved=1;rounded=0;orthogonalLoop=1;jettySize=auto;html=1;entryX=1;entryY=1;entryDx=0;entryDy=0;fontSize=12;startSize=8;endSize=8;exitX=0.5;exitY=0;exitDx=0;exitDy=0;" edge="1" parent="1" source="1A1Fid1lJcvc5-gDURdy-56" target="1A1Fid1lJcvc5-gDURdy-4">
          <mxGeometry relative="1" as="geometry">
            <mxPoint x="247" y="437" as="sourcePoint" />
          </mxGeometry>
        </mxCell>
        <mxCell id="1A1Fid1lJcvc5-gDURdy-56" value="Date" style="ellipse;whiteSpace=wrap;html=1;align=center;" vertex="1" parent="1">
          <mxGeometry x="278" y="432" width="50" height="19" as="geometry" />
        </mxCell>
        <mxCell id="1A1Fid1lJcvc5-gDURdy-60" style="edgeStyle=none;curved=1;rounded=0;orthogonalLoop=1;jettySize=auto;html=1;exitX=0.5;exitY=0;exitDx=0;exitDy=0;entryX=1;entryY=1;entryDx=0;entryDy=0;fontSize=12;startSize=8;endSize=8;" edge="1" parent="1" source="1A1Fid1lJcvc5-gDURdy-55" target="1A1Fid1lJcvc5-gDURdy-110">
          <mxGeometry relative="1" as="geometry" />
        </mxCell>
        <mxCell id="1A1Fid1lJcvc5-gDURdy-68" style="edgeStyle=none;curved=1;rounded=0;orthogonalLoop=1;jettySize=auto;html=1;exitX=1;exitY=0.5;exitDx=0;exitDy=0;entryX=0;entryY=0;entryDx=0;entryDy=0;fontSize=12;startSize=8;endSize=8;" edge="1" parent="1" source="1A1Fid1lJcvc5-gDURdy-61" target="1A1Fid1lJcvc5-gDURdy-63">
          <mxGeometry relative="1" as="geometry" />
        </mxCell>
        <mxCell id="1A1Fid1lJcvc5-gDURdy-61" value="Cash" style="ellipse;whiteSpace=wrap;html=1;align=center;" vertex="1" parent="1">
          <mxGeometry x="-331" y="322" width="52" height="21" as="geometry" />
        </mxCell>
        <mxCell id="1A1Fid1lJcvc5-gDURdy-67" style="edgeStyle=none;curved=1;rounded=0;orthogonalLoop=1;jettySize=auto;html=1;exitX=1;exitY=0.5;exitDx=0;exitDy=0;entryX=0;entryY=1;entryDx=0;entryDy=0;fontSize=12;startSize=8;endSize=8;" edge="1" parent="1" source="1A1Fid1lJcvc5-gDURdy-62" target="1A1Fid1lJcvc5-gDURdy-63">
          <mxGeometry relative="1" as="geometry" />
        </mxCell>
        <mxCell id="1A1Fid1lJcvc5-gDURdy-62" value="Card" style="ellipse;whiteSpace=wrap;html=1;align=center;" vertex="1" parent="1">
          <mxGeometry x="-331" y="349" width="51" height="25" as="geometry" />
        </mxCell>
        <mxCell id="1A1Fid1lJcvc5-gDURdy-70" style="edgeStyle=none;curved=1;rounded=0;orthogonalLoop=1;jettySize=auto;html=1;exitX=1;exitY=0.5;exitDx=0;exitDy=0;entryX=0;entryY=0.5;entryDx=0;entryDy=0;fontSize=12;startSize=8;endSize=8;" edge="1" parent="1" source="1A1Fid1lJcvc5-gDURdy-63" target="1A1Fid1lJcvc5-gDURdy-3">
          <mxGeometry relative="1" as="geometry" />
        </mxCell>
        <mxCell id="1A1Fid1lJcvc5-gDURdy-63" value="Type" style="ellipse;whiteSpace=wrap;html=1;align=center;" vertex="1" parent="1">
          <mxGeometry x="-253.25" y="330" width="53.5" height="24" as="geometry" />
        </mxCell>
        <mxCell id="1A1Fid1lJcvc5-gDURdy-69" style="edgeStyle=none;curved=1;rounded=0;orthogonalLoop=1;jettySize=auto;html=1;exitX=1;exitY=0;exitDx=0;exitDy=0;entryX=0;entryY=0.75;entryDx=0;entryDy=0;fontSize=12;startSize=8;endSize=8;" edge="1" parent="1" source="1A1Fid1lJcvc5-gDURdy-64" target="1A1Fid1lJcvc5-gDURdy-3">
          <mxGeometry relative="1" as="geometry" />
        </mxCell>
        <mxCell id="1A1Fid1lJcvc5-gDURdy-64" value="Pay-ID" style="ellipse;whiteSpace=wrap;html=1;align=center;" vertex="1" parent="1">
          <mxGeometry x="-246" y="382" width="62" height="27" as="geometry" />
        </mxCell>
        <mxCell id="1A1Fid1lJcvc5-gDURdy-79" style="edgeStyle=none;curved=1;rounded=0;orthogonalLoop=1;jettySize=auto;html=1;exitX=1;exitY=0.5;exitDx=0;exitDy=0;entryX=0;entryY=0;entryDx=0;entryDy=0;fontSize=12;startSize=8;endSize=8;" edge="1" parent="1" source="1A1Fid1lJcvc5-gDURdy-73" target="1A1Fid1lJcvc5-gDURdy-74">
          <mxGeometry relative="1" as="geometry" />
        </mxCell>
        <mxCell id="1A1Fid1lJcvc5-gDURdy-73" value="Paid" style="ellipse;whiteSpace=wrap;html=1;align=center;" vertex="1" parent="1">
          <mxGeometry x="-340" y="481" width="56" height="29" as="geometry" />
        </mxCell>
        <mxCell id="1A1Fid1lJcvc5-gDURdy-80" style="edgeStyle=none;curved=1;rounded=0;orthogonalLoop=1;jettySize=auto;html=1;exitX=1;exitY=0.5;exitDx=0;exitDy=0;entryX=0;entryY=0.25;entryDx=0;entryDy=0;fontSize=12;startSize=8;endSize=8;" edge="1" parent="1" source="1A1Fid1lJcvc5-gDURdy-74" target="1A1Fid1lJcvc5-gDURdy-5">
          <mxGeometry relative="1" as="geometry" />
        </mxCell>
        <mxCell id="1A1Fid1lJcvc5-gDURdy-74" value="Status" style="ellipse;whiteSpace=wrap;html=1;align=center;" vertex="1" parent="1">
          <mxGeometry x="-266" y="494" width="68" height="36" as="geometry" />
        </mxCell>
        <mxCell id="1A1Fid1lJcvc5-gDURdy-87" style="edgeStyle=none;curved=1;rounded=0;orthogonalLoop=1;jettySize=auto;html=1;exitX=0.5;exitY=0;exitDx=0;exitDy=0;entryX=0.25;entryY=1;entryDx=0;entryDy=0;fontSize=12;startSize=8;endSize=8;" edge="1" parent="1" source="1A1Fid1lJcvc5-gDURdy-75" target="1A1Fid1lJcvc5-gDURdy-5">
          <mxGeometry relative="1" as="geometry" />
        </mxCell>
        <mxCell id="1A1Fid1lJcvc5-gDURdy-75" value="TIME" style="ellipse;whiteSpace=wrap;html=1;align=center;" vertex="1" parent="1">
          <mxGeometry x="-189" y="577" width="58" height="25" as="geometry" />
        </mxCell>
        <mxCell id="1A1Fid1lJcvc5-gDURdy-76" value="Pending" style="ellipse;whiteSpace=wrap;html=1;align=center;" vertex="1" parent="1">
          <mxGeometry x="-336" y="513.5" width="58" height="33" as="geometry" />
        </mxCell>
        <mxCell id="1A1Fid1lJcvc5-gDURdy-81" style="edgeStyle=none;curved=1;rounded=0;orthogonalLoop=1;jettySize=auto;html=1;exitX=1;exitY=0;exitDx=0;exitDy=0;entryX=0;entryY=0.75;entryDx=0;entryDy=0;fontSize=12;startSize=8;endSize=8;" edge="1" parent="1" source="1A1Fid1lJcvc5-gDURdy-77" target="1A1Fid1lJcvc5-gDURdy-5">
          <mxGeometry relative="1" as="geometry" />
        </mxCell>
        <mxCell id="1A1Fid1lJcvc5-gDURdy-77" value="Del-Name" style="ellipse;whiteSpace=wrap;html=1;align=center;" vertex="1" parent="1">
          <mxGeometry x="-263" y="544" width="68" height="33" as="geometry" />
        </mxCell>
        <mxCell id="1A1Fid1lJcvc5-gDURdy-78" style="edgeStyle=none;curved=1;rounded=0;orthogonalLoop=1;jettySize=auto;html=1;exitX=1;exitY=0.5;exitDx=0;exitDy=0;entryX=0.04;entryY=0.675;entryDx=0;entryDy=0;entryPerimeter=0;fontSize=12;startSize=8;endSize=8;" edge="1" parent="1" source="1A1Fid1lJcvc5-gDURdy-76" target="1A1Fid1lJcvc5-gDURdy-74">
          <mxGeometry relative="1" as="geometry" />
        </mxCell>
        <mxCell id="1A1Fid1lJcvc5-gDURdy-82" value="Start Location" style="ellipse;whiteSpace=wrap;html=1;align=center;" vertex="1" parent="1">
          <mxGeometry x="-18" y="540.5" width="82" height="31" as="geometry" />
        </mxCell>
        <mxCell id="1A1Fid1lJcvc5-gDURdy-86" style="edgeStyle=none;curved=1;rounded=0;orthogonalLoop=1;jettySize=auto;html=1;exitX=0.5;exitY=1;exitDx=0;exitDy=0;entryX=0.5;entryY=1;entryDx=0;entryDy=0;fontSize=12;startSize=8;endSize=8;" edge="1" parent="1" source="1A1Fid1lJcvc5-gDURdy-83" target="1A1Fid1lJcvc5-gDURdy-75">
          <mxGeometry relative="1" as="geometry" />
        </mxCell>
        <mxCell id="1A1Fid1lJcvc5-gDURdy-83" value="End time" style="ellipse;whiteSpace=wrap;html=1;align=center;direction=west;" vertex="1" parent="1">
          <mxGeometry x="-182" y="620" width="63" height="32" as="geometry" />
        </mxCell>
        <mxCell id="1A1Fid1lJcvc5-gDURdy-85" style="edgeStyle=none;curved=1;rounded=0;orthogonalLoop=1;jettySize=auto;html=1;exitX=1;exitY=0;exitDx=0;exitDy=0;entryX=0;entryY=1;entryDx=0;entryDy=0;fontSize=12;startSize=8;endSize=8;" edge="1" parent="1" source="1A1Fid1lJcvc5-gDURdy-84" target="1A1Fid1lJcvc5-gDURdy-75">
          <mxGeometry relative="1" as="geometry" />
        </mxCell>
        <mxCell id="1A1Fid1lJcvc5-gDURdy-84" value="Start Time" style="ellipse;whiteSpace=wrap;html=1;align=center;" vertex="1" parent="1">
          <mxGeometry x="-259" y="613" width="70" height="32" as="geometry" />
        </mxCell>
        <mxCell id="1A1Fid1lJcvc5-gDURdy-88" style="edgeStyle=none;curved=1;rounded=0;orthogonalLoop=1;jettySize=auto;html=1;exitX=0.5;exitY=0;exitDx=0;exitDy=0;entryX=0.362;entryY=0.802;entryDx=0;entryDy=0;entryPerimeter=0;fontSize=12;startSize=8;endSize=8;" edge="1" parent="1" source="1A1Fid1lJcvc5-gDURdy-82" target="1A1Fid1lJcvc5-gDURdy-121">
          <mxGeometry relative="1" as="geometry" />
        </mxCell>
        <mxCell id="1A1Fid1lJcvc5-gDURdy-98" style="edgeStyle=none;curved=1;rounded=0;orthogonalLoop=1;jettySize=auto;html=1;exitX=0;exitY=0.5;exitDx=0;exitDy=0;entryX=1;entryY=0.5;entryDx=0;entryDy=0;fontSize=12;startSize=8;endSize=8;" edge="1" parent="1" source="1A1Fid1lJcvc5-gDURdy-91" target="1A1Fid1lJcvc5-gDURdy-8">
          <mxGeometry relative="1" as="geometry" />
        </mxCell>
        <mxCell id="1A1Fid1lJcvc5-gDURdy-91" value="Name Item" style="ellipse;whiteSpace=wrap;html=1;align=center;" vertex="1" parent="1">
          <mxGeometry x="626" y="396" width="71" height="27" as="geometry" />
        </mxCell>
        <mxCell id="1A1Fid1lJcvc5-gDURdy-99" style="edgeStyle=none;curved=1;rounded=0;orthogonalLoop=1;jettySize=auto;html=1;exitX=0;exitY=0.5;exitDx=0;exitDy=0;entryX=1;entryY=0.25;entryDx=0;entryDy=0;fontSize=12;startSize=8;endSize=8;" edge="1" parent="1" source="1A1Fid1lJcvc5-gDURdy-92" target="1A1Fid1lJcvc5-gDURdy-8">
          <mxGeometry relative="1" as="geometry" />
        </mxCell>
        <mxCell id="1A1Fid1lJcvc5-gDURdy-92" value="Item-ID" style="ellipse;whiteSpace=wrap;html=1;align=center;fontStyle=4" vertex="1" parent="1">
          <mxGeometry x="634" y="353" width="60" height="31" as="geometry" />
        </mxCell>
        <mxCell id="1A1Fid1lJcvc5-gDURdy-101" style="edgeStyle=none;curved=1;rounded=0;orthogonalLoop=1;jettySize=auto;html=1;exitX=0;exitY=0.5;exitDx=0;exitDy=0;entryX=1;entryY=0.5;entryDx=0;entryDy=0;fontSize=12;startSize=8;endSize=8;endArrow=none;startFill=0;" edge="1" parent="1" source="1A1Fid1lJcvc5-gDURdy-100" target="1A1Fid1lJcvc5-gDURdy-12">
          <mxGeometry relative="1" as="geometry" />
        </mxCell>
        <mxCell id="1A1Fid1lJcvc5-gDURdy-138" value="M" style="edgeLabel;html=1;align=center;verticalAlign=middle;resizable=0;points=[];fontSize=12;" vertex="1" connectable="0" parent="1A1Fid1lJcvc5-gDURdy-101">
          <mxGeometry x="-0.0189" relative="1" as="geometry">
            <mxPoint as="offset" />
          </mxGeometry>
        </mxCell>
        <mxCell id="1A1Fid1lJcvc5-gDURdy-102" style="edgeStyle=none;curved=1;rounded=0;orthogonalLoop=1;jettySize=auto;html=1;exitX=1;exitY=0.5;exitDx=0;exitDy=0;entryX=0;entryY=0.5;entryDx=0;entryDy=0;fontSize=12;startSize=8;endSize=8;endArrow=none;startFill=0;" edge="1" parent="1" source="1A1Fid1lJcvc5-gDURdy-100" target="1A1Fid1lJcvc5-gDURdy-1">
          <mxGeometry relative="1" as="geometry" />
        </mxCell>
        <mxCell id="1A1Fid1lJcvc5-gDURdy-139" value="1" style="edgeLabel;html=1;align=center;verticalAlign=middle;resizable=0;points=[];fontSize=12;" vertex="1" connectable="0" parent="1A1Fid1lJcvc5-gDURdy-102">
          <mxGeometry x="0.2286" relative="1" as="geometry">
            <mxPoint as="offset" />
          </mxGeometry>
        </mxCell>
        <mxCell id="1A1Fid1lJcvc5-gDURdy-100" value="Have" style="shape=rhombus;double=1;perimeter=rhombusPerimeter;whiteSpace=wrap;html=1;align=center;" vertex="1" parent="1">
          <mxGeometry x="-73" y="200" width="59" height="44" as="geometry" />
        </mxCell>
        <mxCell id="1A1Fid1lJcvc5-gDURdy-105" style="edgeStyle=none;curved=1;rounded=0;orthogonalLoop=1;jettySize=auto;html=1;exitX=1;exitY=0.5;exitDx=0;exitDy=0;entryX=0;entryY=0.5;entryDx=0;entryDy=0;fontSize=12;startSize=8;endSize=8;endArrow=none;startFill=0;" edge="1" parent="1" source="1A1Fid1lJcvc5-gDURdy-103" target="1A1Fid1lJcvc5-gDURdy-6">
          <mxGeometry relative="1" as="geometry" />
        </mxCell>
        <mxCell id="1A1Fid1lJcvc5-gDURdy-146" value="M" style="edgeLabel;html=1;align=center;verticalAlign=middle;resizable=0;points=[];fontSize=12;" vertex="1" connectable="0" parent="1A1Fid1lJcvc5-gDURdy-105">
          <mxGeometry x="0.0061" y="1" relative="1" as="geometry">
            <mxPoint as="offset" />
          </mxGeometry>
        </mxCell>
        <mxCell id="1A1Fid1lJcvc5-gDURdy-103" value="Select" style="shape=rhombus;perimeter=rhombusPerimeter;whiteSpace=wrap;html=1;align=center;" vertex="1" parent="1">
          <mxGeometry x="199" y="214" width="54" height="38" as="geometry" />
        </mxCell>
        <mxCell id="1A1Fid1lJcvc5-gDURdy-109" style="edgeStyle=none;curved=1;rounded=0;orthogonalLoop=1;jettySize=auto;html=1;exitX=1;exitY=1;exitDx=0;exitDy=0;entryX=0;entryY=0;entryDx=0;entryDy=0;fontSize=12;startSize=8;endSize=8;endArrow=none;startFill=0;" edge="1" parent="1" source="1A1Fid1lJcvc5-gDURdy-106" target="1A1Fid1lJcvc5-gDURdy-8">
          <mxGeometry relative="1" as="geometry" />
        </mxCell>
        <mxCell id="1A1Fid1lJcvc5-gDURdy-149" value="N" style="edgeLabel;html=1;align=center;verticalAlign=middle;resizable=0;points=[];fontSize=12;" vertex="1" connectable="0" parent="1A1Fid1lJcvc5-gDURdy-109">
          <mxGeometry x="0.1099" y="-1" relative="1" as="geometry">
            <mxPoint as="offset" />
          </mxGeometry>
        </mxCell>
        <mxCell id="1A1Fid1lJcvc5-gDURdy-106" value="Choose" style="shape=rhombus;perimeter=rhombusPerimeter;whiteSpace=wrap;html=1;align=center;" vertex="1" parent="1">
          <mxGeometry x="364" y="320" width="66" height="46" as="geometry" />
        </mxCell>
        <mxCell id="1A1Fid1lJcvc5-gDURdy-111" style="edgeStyle=none;curved=1;rounded=0;orthogonalLoop=1;jettySize=auto;html=1;exitX=1;exitY=0;exitDx=0;exitDy=0;entryX=0;entryY=1;entryDx=0;entryDy=0;fontSize=12;startSize=8;endSize=8;endArrow=none;startFill=0;" edge="1" parent="1" source="1A1Fid1lJcvc5-gDURdy-110" target="1A1Fid1lJcvc5-gDURdy-8">
          <mxGeometry relative="1" as="geometry" />
        </mxCell>
        <mxCell id="1A1Fid1lJcvc5-gDURdy-151" value="M" style="edgeLabel;html=1;align=center;verticalAlign=middle;resizable=0;points=[];fontSize=12;" vertex="1" connectable="0" parent="1A1Fid1lJcvc5-gDURdy-111">
          <mxGeometry x="0.2365" y="1" relative="1" as="geometry">
            <mxPoint as="offset" />
          </mxGeometry>
        </mxCell>
        <mxCell id="1A1Fid1lJcvc5-gDURdy-113" style="edgeStyle=none;curved=1;rounded=0;orthogonalLoop=1;jettySize=auto;html=1;exitX=0;exitY=0.5;exitDx=0;exitDy=0;entryX=1;entryY=0.5;entryDx=0;entryDy=0;fontSize=12;startSize=8;endSize=8;endArrow=none;startFill=0;" edge="1" parent="1" source="1A1Fid1lJcvc5-gDURdy-110" target="1A1Fid1lJcvc5-gDURdy-4">
          <mxGeometry relative="1" as="geometry" />
        </mxCell>
        <mxCell id="1A1Fid1lJcvc5-gDURdy-150" value="1" style="edgeLabel;html=1;align=center;verticalAlign=middle;resizable=0;points=[];fontSize=12;" vertex="1" connectable="0" parent="1A1Fid1lJcvc5-gDURdy-113">
          <mxGeometry x="0.4031" relative="1" as="geometry">
            <mxPoint as="offset" />
          </mxGeometry>
        </mxCell>
        <mxCell id="1A1Fid1lJcvc5-gDURdy-110" value="Have" style="shape=rhombus;perimeter=rhombusPerimeter;whiteSpace=wrap;html=1;align=center;" vertex="1" parent="1">
          <mxGeometry x="349" y="393" width="59" height="45" as="geometry" />
        </mxCell>
        <mxCell id="1A1Fid1lJcvc5-gDURdy-114" value="Take" style="shape=rhombus;perimeter=rhombusPerimeter;whiteSpace=wrap;html=1;align=center;" vertex="1" parent="1">
          <mxGeometry x="185" y="295" width="66" height="46" as="geometry" />
        </mxCell>
        <mxCell id="1A1Fid1lJcvc5-gDURdy-116" style="edgeStyle=none;curved=1;rounded=0;orthogonalLoop=1;jettySize=auto;html=1;exitX=0.5;exitY=1;exitDx=0;exitDy=0;entryX=0.36;entryY=0.125;entryDx=0;entryDy=0;entryPerimeter=0;fontSize=12;startSize=8;endSize=8;endArrow=none;startFill=0;" edge="1" parent="1" source="1A1Fid1lJcvc5-gDURdy-114" target="1A1Fid1lJcvc5-gDURdy-4">
          <mxGeometry relative="1" as="geometry" />
        </mxCell>
        <mxCell id="1A1Fid1lJcvc5-gDURdy-145" value="M" style="edgeLabel;html=1;align=center;verticalAlign=middle;resizable=0;points=[];fontSize=12;" vertex="1" connectable="0" parent="1A1Fid1lJcvc5-gDURdy-116">
          <mxGeometry x="0.2222" y="1" relative="1" as="geometry">
            <mxPoint x="-2" y="-4" as="offset" />
          </mxGeometry>
        </mxCell>
        <mxCell id="1A1Fid1lJcvc5-gDURdy-118" style="edgeStyle=none;curved=1;rounded=0;orthogonalLoop=1;jettySize=auto;html=1;exitX=0;exitY=1;exitDx=0;exitDy=0;entryX=1;entryY=0;entryDx=0;entryDy=0;fontSize=12;startSize=8;endSize=8;endArrow=none;startFill=0;" edge="1" parent="1" source="1A1Fid1lJcvc5-gDURdy-117" target="1A1Fid1lJcvc5-gDURdy-3">
          <mxGeometry relative="1" as="geometry" />
        </mxCell>
        <mxCell id="1A1Fid1lJcvc5-gDURdy-140" value="1" style="edgeLabel;html=1;align=center;verticalAlign=middle;resizable=0;points=[];fontSize=12;" vertex="1" connectable="0" parent="1A1Fid1lJcvc5-gDURdy-118">
          <mxGeometry x="0.502" relative="1" as="geometry">
            <mxPoint as="offset" />
          </mxGeometry>
        </mxCell>
        <mxCell id="1A1Fid1lJcvc5-gDURdy-119" style="edgeStyle=none;curved=1;rounded=0;orthogonalLoop=1;jettySize=auto;html=1;exitX=1;exitY=0;exitDx=0;exitDy=0;entryX=0;entryY=1;entryDx=0;entryDy=0;fontSize=12;startSize=8;endSize=8;endArrow=none;startFill=0;" edge="1" parent="1" source="1A1Fid1lJcvc5-gDURdy-117" target="1A1Fid1lJcvc5-gDURdy-1">
          <mxGeometry relative="1" as="geometry" />
        </mxCell>
        <mxCell id="1A1Fid1lJcvc5-gDURdy-141" value="1" style="edgeLabel;html=1;align=center;verticalAlign=middle;resizable=0;points=[];fontSize=12;" vertex="1" connectable="0" parent="1A1Fid1lJcvc5-gDURdy-119">
          <mxGeometry x="0.4311" y="1" relative="1" as="geometry">
            <mxPoint as="offset" />
          </mxGeometry>
        </mxCell>
        <mxCell id="1A1Fid1lJcvc5-gDURdy-117" value="Action_Type" style="shape=rhombus;perimeter=rhombusPerimeter;whiteSpace=wrap;html=1;align=center;" vertex="1" parent="1">
          <mxGeometry x="-49" y="267" width="89" height="67" as="geometry" />
        </mxCell>
        <mxCell id="1A1Fid1lJcvc5-gDURdy-123" style="edgeStyle=none;curved=1;rounded=0;orthogonalLoop=1;jettySize=auto;html=1;exitX=1;exitY=1;exitDx=0;exitDy=0;entryX=0;entryY=0.5;entryDx=0;entryDy=0;fontSize=12;startSize=8;endSize=8;endArrow=none;startFill=0;" edge="1" parent="1" source="1A1Fid1lJcvc5-gDURdy-121" target="1A1Fid1lJcvc5-gDURdy-2">
          <mxGeometry relative="1" as="geometry" />
        </mxCell>
        <mxCell id="1A1Fid1lJcvc5-gDURdy-157" value="M" style="edgeLabel;html=1;align=center;verticalAlign=middle;resizable=0;points=[];fontSize=12;" vertex="1" connectable="0" parent="1A1Fid1lJcvc5-gDURdy-123">
          <mxGeometry x="-0.1608" y="1" relative="1" as="geometry">
            <mxPoint as="offset" />
          </mxGeometry>
        </mxCell>
        <mxCell id="1A1Fid1lJcvc5-gDURdy-128" style="edgeStyle=none;curved=1;rounded=0;orthogonalLoop=1;jettySize=auto;html=1;exitX=1;exitY=0;exitDx=0;exitDy=0;entryX=0.25;entryY=1;entryDx=0;entryDy=0;fontSize=12;startSize=8;endSize=8;endArrow=none;startFill=0;" edge="1" parent="1" source="1A1Fid1lJcvc5-gDURdy-121" target="1A1Fid1lJcvc5-gDURdy-4">
          <mxGeometry relative="1" as="geometry" />
        </mxCell>
        <mxCell id="1A1Fid1lJcvc5-gDURdy-155" value="M" style="edgeLabel;html=1;align=center;verticalAlign=middle;resizable=0;points=[];fontSize=12;" vertex="1" connectable="0" parent="1A1Fid1lJcvc5-gDURdy-128">
          <mxGeometry x="-0.4331" y="-3" relative="1" as="geometry">
            <mxPoint as="offset" />
          </mxGeometry>
        </mxCell>
        <mxCell id="1A1Fid1lJcvc5-gDURdy-121" value="Take" style="shape=rhombus;perimeter=rhombusPerimeter;whiteSpace=wrap;html=1;align=center;" vertex="1" parent="1">
          <mxGeometry x="22" y="471.5" width="69" height="48" as="geometry" />
        </mxCell>
        <mxCell id="1A1Fid1lJcvc5-gDURdy-133" style="edgeStyle=none;curved=1;rounded=0;orthogonalLoop=1;jettySize=auto;html=1;exitX=1;exitY=1;exitDx=0;exitDy=0;entryX=0;entryY=0.5;entryDx=0;entryDy=0;fontSize=12;startSize=8;endSize=8;endArrow=none;startFill=0;" edge="1" parent="1" source="1A1Fid1lJcvc5-gDURdy-130" target="1A1Fid1lJcvc5-gDURdy-4">
          <mxGeometry relative="1" as="geometry" />
        </mxCell>
        <mxCell id="1A1Fid1lJcvc5-gDURdy-154" value="M" style="edgeLabel;html=1;align=center;verticalAlign=middle;resizable=0;points=[];fontSize=12;" vertex="1" connectable="0" parent="1A1Fid1lJcvc5-gDURdy-133">
          <mxGeometry x="0.1083" y="-3" relative="1" as="geometry">
            <mxPoint y="-3" as="offset" />
          </mxGeometry>
        </mxCell>
        <mxCell id="1A1Fid1lJcvc5-gDURdy-134" style="edgeStyle=none;curved=1;rounded=0;orthogonalLoop=1;jettySize=auto;html=1;exitX=0;exitY=1;exitDx=0;exitDy=0;entryX=0.5;entryY=0;entryDx=0;entryDy=0;fontSize=12;startSize=8;endSize=8;endArrow=none;startFill=0;" edge="1" parent="1" source="1A1Fid1lJcvc5-gDURdy-130" target="1A1Fid1lJcvc5-gDURdy-5">
          <mxGeometry relative="1" as="geometry" />
        </mxCell>
        <mxCell id="1A1Fid1lJcvc5-gDURdy-152" value="M" style="edgeLabel;html=1;align=center;verticalAlign=middle;resizable=0;points=[];fontSize=12;" vertex="1" connectable="0" parent="1A1Fid1lJcvc5-gDURdy-134">
          <mxGeometry x="0.7168" y="3" relative="1" as="geometry">
            <mxPoint y="-3" as="offset" />
          </mxGeometry>
        </mxCell>
        <mxCell id="1A1Fid1lJcvc5-gDURdy-130" value="Track" style="shape=rhombus;perimeter=rhombusPerimeter;whiteSpace=wrap;html=1;align=center;" vertex="1" parent="1">
          <mxGeometry x="7" y="354" width="69" height="48" as="geometry" />
        </mxCell>
        <mxCell id="1A1Fid1lJcvc5-gDURdy-137" style="edgeStyle=none;curved=1;rounded=0;orthogonalLoop=1;jettySize=auto;html=1;exitX=1;exitY=0;exitDx=0;exitDy=0;entryX=0;entryY=0.5;entryDx=0;entryDy=0;fontSize=12;startSize=8;endSize=8;" edge="1" parent="1" source="1A1Fid1lJcvc5-gDURdy-135" target="1A1Fid1lJcvc5-gDURdy-130">
          <mxGeometry relative="1" as="geometry" />
        </mxCell>
        <mxCell id="1A1Fid1lJcvc5-gDURdy-135" value="End Location" style="ellipse;whiteSpace=wrap;html=1;align=center;" vertex="1" parent="1">
          <mxGeometry x="-93" y="385.75" width="82" height="31" as="geometry" />
        </mxCell>
        <mxCell id="1A1Fid1lJcvc5-gDURdy-158" value="&lt;u&gt;UID&lt;/u&gt;" style="rounded=0;whiteSpace=wrap;html=1;" vertex="1" parent="1">
          <mxGeometry x="-286" y="824" width="120" height="60" as="geometry" />
        </mxCell>
        <mxCell id="1A1Fid1lJcvc5-gDURdy-159" value="USER" style="text;html=1;align=center;verticalAlign=middle;resizable=0;points=[];autosize=1;strokeColor=#6c8ebf;fillColor=#dae8fc;fontSize=16;" vertex="1" parent="1">
          <mxGeometry x="-284.5" y="784.5" width="62" height="31" as="geometry" />
        </mxCell>
        <mxCell id="1A1Fid1lJcvc5-gDURdy-160" value="FNAME" style="rounded=0;whiteSpace=wrap;html=1;" vertex="1" parent="1">
          <mxGeometry x="-168" y="824" width="120" height="60" as="geometry" />
        </mxCell>
        <mxCell id="1A1Fid1lJcvc5-gDURdy-161" value="LANME" style="rounded=0;whiteSpace=wrap;html=1;" vertex="1" parent="1">
          <mxGeometry x="-47" y="824" width="120" height="60" as="geometry" />
        </mxCell>
        <mxCell id="1A1Fid1lJcvc5-gDURdy-162" value="PASS" style="rounded=0;whiteSpace=wrap;html=1;" vertex="1" parent="1">
          <mxGeometry x="195.5" y="825" width="120" height="60" as="geometry" />
        </mxCell>
        <mxCell id="1A1Fid1lJcvc5-gDURdy-163" value="EMAIL" style="rounded=0;whiteSpace=wrap;html=1;" vertex="1" parent="1">
          <mxGeometry x="74" y="824.5" width="120" height="60" as="geometry" />
        </mxCell>
        <mxCell id="1A1Fid1lJcvc5-gDURdy-165" value="&lt;u&gt;CATID&lt;/u&gt;" style="rounded=0;whiteSpace=wrap;html=1;" vertex="1" parent="1">
          <mxGeometry x="-283" y="1100.5" width="120" height="60" as="geometry" />
        </mxCell>
        <mxCell id="1A1Fid1lJcvc5-gDURdy-166" value="CATEGORTY" style="text;html=1;align=center;verticalAlign=middle;resizable=0;points=[];autosize=1;strokeColor=#6c8ebf;fillColor=#dae8fc;fontSize=16;" vertex="1" parent="1">
          <mxGeometry x="-286" y="1062" width="116" height="31" as="geometry" />
        </mxCell>
        <mxCell id="1A1Fid1lJcvc5-gDURdy-171" value="CATID" style="rounded=0;whiteSpace=wrap;html=1;" vertex="1" parent="1">
          <mxGeometry x="-276.5" y="1245.5" width="120" height="60" as="geometry" />
        </mxCell>
        <mxCell id="1A1Fid1lJcvc5-gDURdy-172" value="TYPE CATEGORTY" style="text;html=1;align=center;verticalAlign=middle;resizable=0;points=[];autosize=1;strokeColor=#6c8ebf;fillColor=#dae8fc;fontSize=16;" vertex="1" parent="1">
          <mxGeometry x="-280" y="1206" width="162" height="31" as="geometry" />
        </mxCell>
        <mxCell id="1A1Fid1lJcvc5-gDURdy-173" value="TYPE" style="rounded=0;whiteSpace=wrap;html=1;fillColor=#f5f5f5;fontColor=#333333;strokeColor=#666666;" vertex="1" parent="1">
          <mxGeometry x="-159.5" y="1245.5" width="120" height="60" as="geometry" />
        </mxCell>
        <mxCell id="1A1Fid1lJcvc5-gDURdy-174" value="" style="endArrow=none;dashed=1;html=1;rounded=0;fontSize=12;startSize=8;endSize=8;curved=1;" edge="1" parent="1">
          <mxGeometry width="50" height="50" relative="1" as="geometry">
            <mxPoint x="-126.5" y="1282.5" as="sourcePoint" />
            <mxPoint x="-61.5" y="1282.5" as="targetPoint" />
          </mxGeometry>
        </mxCell>
        <mxCell id="1A1Fid1lJcvc5-gDURdy-175" value="" style="endArrow=none;dashed=1;html=1;rounded=0;fontSize=12;startSize=8;endSize=8;curved=1;" edge="1" parent="1">
          <mxGeometry width="50" height="50" relative="1" as="geometry">
            <mxPoint x="-253" y="1284.5" as="sourcePoint" />
            <mxPoint x="-188" y="1284.5" as="targetPoint" />
          </mxGeometry>
        </mxCell>
        <mxCell id="1A1Fid1lJcvc5-gDURdy-176" style="edgeStyle=orthogonalEdgeStyle;rounded=0;orthogonalLoop=1;jettySize=auto;html=1;entryX=0.4;entryY=0.992;entryDx=0;entryDy=0;entryPerimeter=0;fontSize=12;startSize=8;endSize=8;endArrow=classic;endFill=1;" edge="1" parent="1" source="1A1Fid1lJcvc5-gDURdy-171" target="1A1Fid1lJcvc5-gDURdy-165">
          <mxGeometry relative="1" as="geometry">
            <Array as="points">
              <mxPoint x="-216" y="1322" />
              <mxPoint x="62" y="1322" />
              <mxPoint x="62" y="1203" />
              <mxPoint x="-235" y="1203" />
            </Array>
          </mxGeometry>
        </mxCell>
        <mxCell id="1A1Fid1lJcvc5-gDURdy-314" value="TYPE" style="edgeLabel;html=1;align=center;verticalAlign=middle;resizable=0;points=[];fontSize=12;fontFamily=Helvetica;fontColor=default;labelBackgroundColor=default;" vertex="1" connectable="0" parent="1A1Fid1lJcvc5-gDURdy-176">
          <mxGeometry x="-0.0767" y="6" relative="1" as="geometry">
            <mxPoint y="-1" as="offset" />
          </mxGeometry>
        </mxCell>
        <mxCell id="1A1Fid1lJcvc5-gDURdy-177" value="&lt;u&gt;ITEM-ID&lt;/u&gt;" style="rounded=0;whiteSpace=wrap;html=1;" vertex="1" parent="1">
          <mxGeometry x="-293.5" y="1349.5" width="120" height="60" as="geometry" />
        </mxCell>
        <mxCell id="1A1Fid1lJcvc5-gDURdy-178" value="ITEM" style="text;html=1;align=center;verticalAlign=middle;resizable=0;points=[];autosize=1;strokeColor=#6c8ebf;fillColor=#dae8fc;fontSize=16;" vertex="1" parent="1">
          <mxGeometry x="-291" y="1310" width="56" height="31" as="geometry" />
        </mxCell>
        <mxCell id="1A1Fid1lJcvc5-gDURdy-179" value="ITEM-NAME" style="rounded=0;whiteSpace=wrap;html=1;" vertex="1" parent="1">
          <mxGeometry x="-175.5" y="1349.5" width="120" height="60" as="geometry" />
        </mxCell>
        <mxCell id="1A1Fid1lJcvc5-gDURdy-183" value="&lt;u&gt;ORDER-ID&lt;/u&gt;" style="rounded=0;whiteSpace=wrap;html=1;" vertex="1" parent="1">
          <mxGeometry x="-293" y="1474.5" width="120" height="60" as="geometry" />
        </mxCell>
        <mxCell id="1A1Fid1lJcvc5-gDURdy-184" value="ORDER" style="text;html=1;align=center;verticalAlign=middle;resizable=0;points=[];autosize=1;strokeColor=#6c8ebf;fillColor=#dae8fc;fontSize=16;" vertex="1" parent="1">
          <mxGeometry x="-294.5" y="1435" width="76" height="31" as="geometry" />
        </mxCell>
        <mxCell id="1A1Fid1lJcvc5-gDURdy-185" value="DATE" style="rounded=0;whiteSpace=wrap;html=1;" vertex="1" parent="1">
          <mxGeometry x="-175" y="1474.5" width="120" height="60" as="geometry" />
        </mxCell>
        <mxCell id="1A1Fid1lJcvc5-gDURdy-188" value="&lt;u&gt;P-ID&lt;/u&gt;" style="rounded=0;whiteSpace=wrap;html=1;" vertex="1" parent="1">
          <mxGeometry x="-289.5" y="1612.5" width="120" height="60" as="geometry" />
        </mxCell>
        <mxCell id="1A1Fid1lJcvc5-gDURdy-189" value="PROVIDER" style="text;html=1;align=center;verticalAlign=middle;resizable=0;points=[];autosize=1;strokeColor=#6c8ebf;fillColor=#dae8fc;fontSize=16;" vertex="1" parent="1">
          <mxGeometry x="-291" y="1573" width="102" height="31" as="geometry" />
        </mxCell>
        <mxCell id="1A1Fid1lJcvc5-gDURdy-190" value="NAME" style="rounded=0;whiteSpace=wrap;html=1;" vertex="1" parent="1">
          <mxGeometry x="-171.5" y="1612.5" width="120" height="60" as="geometry" />
        </mxCell>
        <mxCell id="1A1Fid1lJcvc5-gDURdy-199" style="edgeStyle=orthogonalEdgeStyle;shape=connector;rounded=0;orthogonalLoop=1;jettySize=auto;html=1;strokeColor=default;align=center;verticalAlign=middle;fontFamily=Helvetica;fontSize=12;fontColor=default;labelBackgroundColor=default;startSize=8;endArrow=classic;endFill=1;endSize=8;" edge="1" parent="1" source="1A1Fid1lJcvc5-gDURdy-194" target="1A1Fid1lJcvc5-gDURdy-188">
          <mxGeometry relative="1" as="geometry">
            <Array as="points">
              <mxPoint x="-232" y="1833" />
              <mxPoint x="110" y="1833" />
              <mxPoint x="110" y="1712" />
              <mxPoint x="-229" y="1712" />
            </Array>
          </mxGeometry>
        </mxCell>
        <mxCell id="1A1Fid1lJcvc5-gDURdy-194" value="P-ID" style="rounded=0;whiteSpace=wrap;html=1;" vertex="1" parent="1">
          <mxGeometry x="-292.5" y="1749.5" width="120" height="60" as="geometry" />
        </mxCell>
        <mxCell id="1A1Fid1lJcvc5-gDURdy-195" value="BUS INFO" style="text;html=1;align=center;verticalAlign=middle;resizable=0;points=[];autosize=1;strokeColor=#6c8ebf;fillColor=#dae8fc;fontSize=16;" vertex="1" parent="1">
          <mxGeometry x="-291" y="1718" width="94" height="31" as="geometry" />
        </mxCell>
        <mxCell id="1A1Fid1lJcvc5-gDURdy-196" value="&lt;u&gt;BUS-ID&lt;/u&gt;" style="rounded=0;whiteSpace=wrap;html=1;fillColor=#f5f5f5;fontColor=#333333;strokeColor=#666666;" vertex="1" parent="1">
          <mxGeometry x="-174.5" y="1749.5" width="120" height="60" as="geometry" />
        </mxCell>
        <mxCell id="1A1Fid1lJcvc5-gDURdy-197" value="BUS-NAME" style="rounded=0;whiteSpace=wrap;html=1;fillColor=#f5f5f5;fontColor=#333333;strokeColor=#666666;" vertex="1" parent="1">
          <mxGeometry x="-53.5" y="1749.5" width="120" height="60" as="geometry" />
        </mxCell>
        <mxCell id="1A1Fid1lJcvc5-gDURdy-198" value="" style="endArrow=none;dashed=1;html=1;rounded=0;fontSize=12;startSize=8;endSize=8;curved=1;" edge="1" parent="1">
          <mxGeometry width="50" height="50" relative="1" as="geometry">
            <mxPoint x="-266" y="1794" as="sourcePoint" />
            <mxPoint x="-201" y="1794" as="targetPoint" />
          </mxGeometry>
        </mxCell>
        <mxCell id="1A1Fid1lJcvc5-gDURdy-200" value="&lt;u&gt;D-ID&lt;/u&gt;" style="rounded=0;whiteSpace=wrap;html=1;" vertex="1" parent="1">
          <mxGeometry x="-319.5" y="1878.5" width="120" height="60" as="geometry" />
        </mxCell>
        <mxCell id="1A1Fid1lJcvc5-gDURdy-201" value="DELIVARY" style="text;html=1;align=center;verticalAlign=middle;resizable=0;points=[];autosize=1;strokeColor=#6c8ebf;fillColor=#dae8fc;fontSize=16;" vertex="1" parent="1">
          <mxGeometry x="-321" y="1839" width="96" height="31" as="geometry" />
        </mxCell>
        <mxCell id="1A1Fid1lJcvc5-gDURdy-202" value="DNAME" style="rounded=0;whiteSpace=wrap;html=1;" vertex="1" parent="1">
          <mxGeometry x="-201.5" y="1878.5" width="120" height="60" as="geometry" />
        </mxCell>
        <mxCell id="1A1Fid1lJcvc5-gDURdy-203" value="STIME" style="rounded=0;whiteSpace=wrap;html=1;" vertex="1" parent="1">
          <mxGeometry x="-80.5" y="1878.5" width="120" height="60" as="geometry" />
        </mxCell>
        <mxCell id="1A1Fid1lJcvc5-gDURdy-204" value="ETIME" style="rounded=0;whiteSpace=wrap;html=1;" vertex="1" parent="1">
          <mxGeometry x="40.5" y="1879" width="120" height="60" as="geometry" />
        </mxCell>
        <mxCell id="1A1Fid1lJcvc5-gDURdy-205" value="&lt;u&gt;Del-ID&lt;/u&gt;" style="ellipse;whiteSpace=wrap;html=1;align=center;" vertex="1" parent="1">
          <mxGeometry x="-103" y="602" width="68" height="33" as="geometry" />
        </mxCell>
        <mxCell id="1A1Fid1lJcvc5-gDURdy-206" style="shape=connector;rounded=0;orthogonalLoop=1;jettySize=auto;html=1;entryX=0.87;entryY=0.925;entryDx=0;entryDy=0;entryPerimeter=0;strokeColor=default;align=center;verticalAlign=middle;fontFamily=Helvetica;fontSize=12;fontColor=default;labelBackgroundColor=default;startSize=8;endArrow=classic;endFill=1;endSize=8;" edge="1" parent="1" source="1A1Fid1lJcvc5-gDURdy-205" target="1A1Fid1lJcvc5-gDURdy-5">
          <mxGeometry relative="1" as="geometry" />
        </mxCell>
        <mxCell id="1A1Fid1lJcvc5-gDURdy-208" value="PAID" style="rounded=0;whiteSpace=wrap;html=1;" vertex="1" parent="1">
          <mxGeometry x="160.5" y="1879" width="120" height="60" as="geometry" />
        </mxCell>
        <mxCell id="1A1Fid1lJcvc5-gDURdy-209" value="PENDING" style="rounded=0;whiteSpace=wrap;html=1;" vertex="1" parent="1">
          <mxGeometry x="281.5" y="1879" width="120" height="60" as="geometry" />
        </mxCell>
        <mxCell id="1A1Fid1lJcvc5-gDURdy-210" value="&lt;u&gt;B NUM&lt;/u&gt;" style="rounded=0;whiteSpace=wrap;html=1;" vertex="1" parent="1">
          <mxGeometry x="-282" y="970.5" width="120" height="60" as="geometry" />
        </mxCell>
        <mxCell id="1A1Fid1lJcvc5-gDURdy-211" value="BANK DETAILES" style="text;html=1;align=center;verticalAlign=middle;resizable=0;points=[];autosize=1;strokeColor=#6c8ebf;fillColor=#dae8fc;fontSize=16;" vertex="1" parent="1">
          <mxGeometry x="-281.5" y="931" width="142" height="31" as="geometry" />
        </mxCell>
        <mxCell id="1A1Fid1lJcvc5-gDURdy-212" value="COMF-NUM" style="rounded=0;whiteSpace=wrap;html=1;" vertex="1" parent="1">
          <mxGeometry x="-164" y="970.5" width="120" height="60" as="geometry" />
        </mxCell>
        <mxCell id="1A1Fid1lJcvc5-gDURdy-213" value="ENDDATE" style="rounded=0;whiteSpace=wrap;html=1;" vertex="1" parent="1">
          <mxGeometry x="-43" y="970.5" width="120" height="60" as="geometry" />
        </mxCell>
        <mxCell id="1A1Fid1lJcvc5-gDURdy-215" value="UID" style="rounded=0;whiteSpace=wrap;html=1;fillColor=#fad7ac;strokeColor=#b46504;" vertex="1" parent="1">
          <mxGeometry x="77" y="970" width="120" height="60" as="geometry" />
        </mxCell>
        <mxCell id="1A1Fid1lJcvc5-gDURdy-216" value="" style="endArrow=none;dashed=1;html=1;rounded=0;fontSize=12;startSize=8;endSize=8;curved=1;" edge="1" parent="1">
          <mxGeometry width="50" height="50" relative="1" as="geometry">
            <mxPoint x="111" y="1012" as="sourcePoint" />
            <mxPoint x="176" y="1012" as="targetPoint" />
          </mxGeometry>
        </mxCell>
        <mxCell id="1A1Fid1lJcvc5-gDURdy-217" style="edgeStyle=orthogonalEdgeStyle;shape=connector;rounded=0;orthogonalLoop=1;jettySize=auto;html=1;entryX=0.442;entryY=0.95;entryDx=0;entryDy=0;entryPerimeter=0;strokeColor=default;align=center;verticalAlign=middle;fontFamily=Helvetica;fontSize=12;fontColor=default;labelBackgroundColor=default;startSize=8;endArrow=classic;endFill=1;endSize=8;" edge="1" parent="1" source="1A1Fid1lJcvc5-gDURdy-215" target="1A1Fid1lJcvc5-gDURdy-158">
          <mxGeometry relative="1" as="geometry">
            <Array as="points">
              <mxPoint x="137" y="906" />
              <mxPoint x="-233" y="906" />
            </Array>
          </mxGeometry>
        </mxCell>
        <mxCell id="1A1Fid1lJcvc5-gDURdy-218" value="HAVE" style="edgeLabel;html=1;align=center;verticalAlign=middle;resizable=0;points=[];fontSize=12;fontFamily=Helvetica;fontColor=default;labelBackgroundColor=default;" vertex="1" connectable="0" parent="1A1Fid1lJcvc5-gDURdy-217">
          <mxGeometry x="0.1852" y="-3" relative="1" as="geometry">
            <mxPoint as="offset" />
          </mxGeometry>
        </mxCell>
        <mxCell id="1A1Fid1lJcvc5-gDURdy-222" value="UID" style="rounded=0;whiteSpace=wrap;html=1;fillColor=#fad7ac;strokeColor=#b46504;" vertex="1" parent="1">
          <mxGeometry x="-162" y="1101" width="120" height="60" as="geometry" />
        </mxCell>
        <mxCell id="1A1Fid1lJcvc5-gDURdy-223" value="" style="endArrow=none;dashed=1;html=1;rounded=0;fontSize=12;startSize=8;endSize=8;curved=1;" edge="1" parent="1">
          <mxGeometry width="50" height="50" relative="1" as="geometry">
            <mxPoint x="-128" y="1143" as="sourcePoint" />
            <mxPoint x="-63" y="1143" as="targetPoint" />
          </mxGeometry>
        </mxCell>
        <mxCell id="1A1Fid1lJcvc5-gDURdy-224" style="edgeStyle=orthogonalEdgeStyle;shape=connector;rounded=0;orthogonalLoop=1;jettySize=auto;html=1;entryX=0.175;entryY=0.983;entryDx=0;entryDy=0;entryPerimeter=0;strokeColor=default;align=center;verticalAlign=middle;fontFamily=Helvetica;fontSize=12;fontColor=default;labelBackgroundColor=default;startSize=8;endArrow=classic;endFill=1;endSize=8;" edge="1" parent="1" source="1A1Fid1lJcvc5-gDURdy-222" target="1A1Fid1lJcvc5-gDURdy-158">
          <mxGeometry relative="1" as="geometry">
            <Array as="points">
              <mxPoint x="-102" y="1186" />
              <mxPoint x="-331" y="1186" />
              <mxPoint x="-331" y="915" />
              <mxPoint x="-265" y="915" />
            </Array>
          </mxGeometry>
        </mxCell>
        <mxCell id="1A1Fid1lJcvc5-gDURdy-225" value="SELECT" style="edgeLabel;html=1;align=center;verticalAlign=middle;resizable=0;points=[];fontSize=12;fontFamily=Helvetica;fontColor=default;labelBackgroundColor=default;" vertex="1" connectable="0" parent="1A1Fid1lJcvc5-gDURdy-224">
          <mxGeometry x="0.3033" y="3" relative="1" as="geometry">
            <mxPoint as="offset" />
          </mxGeometry>
        </mxCell>
        <mxCell id="1A1Fid1lJcvc5-gDURdy-228" value="&lt;u&gt;PAY-ID&lt;/u&gt;" style="rounded=0;whiteSpace=wrap;html=1;" vertex="1" parent="1">
          <mxGeometry x="-314.5" y="2049.5" width="120" height="60" as="geometry" />
        </mxCell>
        <mxCell id="1A1Fid1lJcvc5-gDURdy-229" value="PAYMENT" style="text;html=1;align=center;verticalAlign=middle;resizable=0;points=[];autosize=1;strokeColor=#6c8ebf;fillColor=#dae8fc;fontSize=16;" vertex="1" parent="1">
          <mxGeometry x="-317" y="2010" width="93" height="31" as="geometry" />
        </mxCell>
        <mxCell id="1A1Fid1lJcvc5-gDURdy-230" value="CASH" style="rounded=0;whiteSpace=wrap;html=1;" vertex="1" parent="1">
          <mxGeometry x="-196.5" y="2049.5" width="120" height="60" as="geometry" />
        </mxCell>
        <mxCell id="1A1Fid1lJcvc5-gDURdy-231" value="CARD" style="rounded=0;whiteSpace=wrap;html=1;" vertex="1" parent="1">
          <mxGeometry x="-75.5" y="2049.5" width="120" height="60" as="geometry" />
        </mxCell>
        <mxCell id="1A1Fid1lJcvc5-gDURdy-233" value="" style="group;fillColor=#fad7ac;strokeColor=#b46504;" vertex="1" connectable="0" parent="1">
          <mxGeometry x="46" y="2049.5" width="120" height="60" as="geometry" />
        </mxCell>
        <mxCell id="1A1Fid1lJcvc5-gDURdy-226" value="UID" style="rounded=0;whiteSpace=wrap;html=1;fillColor=#fad7ac;strokeColor=#b46504;" vertex="1" parent="1A1Fid1lJcvc5-gDURdy-233">
          <mxGeometry width="120" height="60" as="geometry" />
        </mxCell>
        <mxCell id="1A1Fid1lJcvc5-gDURdy-227" value="" style="endArrow=none;dashed=1;html=1;rounded=0;fontSize=12;startSize=8;endSize=8;curved=1;" edge="1" parent="1A1Fid1lJcvc5-gDURdy-233">
          <mxGeometry width="50" height="50" relative="1" as="geometry">
            <mxPoint x="34" y="42" as="sourcePoint" />
            <mxPoint x="99" y="42" as="targetPoint" />
          </mxGeometry>
        </mxCell>
        <mxCell id="1A1Fid1lJcvc5-gDURdy-234" style="edgeStyle=orthogonalEdgeStyle;shape=connector;rounded=0;orthogonalLoop=1;jettySize=auto;html=1;entryX=0;entryY=0.5;entryDx=0;entryDy=0;strokeColor=default;align=center;verticalAlign=middle;fontFamily=Helvetica;fontSize=12;fontColor=default;labelBackgroundColor=default;startSize=8;endArrow=classic;endFill=1;endSize=8;" edge="1" parent="1" source="1A1Fid1lJcvc5-gDURdy-226" target="1A1Fid1lJcvc5-gDURdy-158">
          <mxGeometry relative="1" as="geometry">
            <Array as="points">
              <mxPoint x="106" y="2133" />
              <mxPoint x="-363" y="2133" />
              <mxPoint x="-363" y="854" />
            </Array>
          </mxGeometry>
        </mxCell>
        <mxCell id="1A1Fid1lJcvc5-gDURdy-235" value="ACTION TYPE" style="edgeLabel;html=1;align=center;verticalAlign=middle;resizable=0;points=[];fontSize=12;fontFamily=Helvetica;fontColor=default;labelBackgroundColor=default;" vertex="1" connectable="0" parent="1A1Fid1lJcvc5-gDURdy-234">
          <mxGeometry x="-0.7376" y="-3" relative="1" as="geometry">
            <mxPoint x="1" y="5" as="offset" />
          </mxGeometry>
        </mxCell>
        <mxCell id="1A1Fid1lJcvc5-gDURdy-237" value="CHOOSE ITEM" style="text;html=1;align=center;verticalAlign=middle;resizable=0;points=[];autosize=1;strokeColor=#6c8ebf;fillColor=#dae8fc;fontSize=16;" vertex="1" parent="1">
          <mxGeometry x="-314" y="2144" width="130" height="31" as="geometry" />
        </mxCell>
        <mxCell id="1A1Fid1lJcvc5-gDURdy-240" value="" style="group;fillColor=#b1ddf0;strokeColor=#10739e;" vertex="1" connectable="0" parent="1">
          <mxGeometry x="-192" y="2176" width="120" height="60" as="geometry" />
        </mxCell>
        <mxCell id="1A1Fid1lJcvc5-gDURdy-241" value="ITEMID" style="rounded=0;whiteSpace=wrap;html=1;fillColor=#b1ddf0;strokeColor=#10739e;" vertex="1" parent="1A1Fid1lJcvc5-gDURdy-240">
          <mxGeometry width="120" height="60" as="geometry" />
        </mxCell>
        <mxCell id="1A1Fid1lJcvc5-gDURdy-242" value="" style="endArrow=none;dashed=1;html=1;rounded=0;fontSize=12;startSize=8;endSize=8;curved=1;" edge="1" parent="1A1Fid1lJcvc5-gDURdy-240">
          <mxGeometry width="50" height="50" relative="1" as="geometry">
            <mxPoint x="34" y="42" as="sourcePoint" />
            <mxPoint x="99" y="42" as="targetPoint" />
          </mxGeometry>
        </mxCell>
        <mxCell id="1A1Fid1lJcvc5-gDURdy-244" value="CATID" style="rounded=0;whiteSpace=wrap;html=1;fillColor=#b1ddf0;strokeColor=#10739e;" vertex="1" parent="1">
          <mxGeometry x="-311.5" y="2176.5" width="120" height="60" as="geometry" />
        </mxCell>
        <mxCell id="1A1Fid1lJcvc5-gDURdy-245" value="" style="endArrow=none;dashed=1;html=1;rounded=0;fontSize=12;startSize=8;endSize=8;curved=1;" edge="1" parent="1">
          <mxGeometry width="50" height="50" relative="1" as="geometry">
            <mxPoint x="-285" y="2221" as="sourcePoint" />
            <mxPoint x="-220" y="2221" as="targetPoint" />
          </mxGeometry>
        </mxCell>
        <mxCell id="1A1Fid1lJcvc5-gDURdy-246" style="edgeStyle=orthogonalEdgeStyle;shape=connector;rounded=0;orthogonalLoop=1;jettySize=auto;html=1;entryX=0.125;entryY=1.042;entryDx=0;entryDy=0;entryPerimeter=0;strokeColor=default;align=center;verticalAlign=middle;fontFamily=Helvetica;fontSize=12;fontColor=default;labelBackgroundColor=default;startSize=8;endArrow=classic;endFill=1;endSize=8;" edge="1" parent="1" source="1A1Fid1lJcvc5-gDURdy-244" target="1A1Fid1lJcvc5-gDURdy-165">
          <mxGeometry relative="1" as="geometry">
            <Array as="points">
              <mxPoint x="-436" y="2201" />
              <mxPoint x="-436" y="1666" />
              <mxPoint x="-438" y="1666" />
              <mxPoint x="-438" y="1202" />
              <mxPoint x="-268" y="1202" />
            </Array>
          </mxGeometry>
        </mxCell>
        <mxCell id="1A1Fid1lJcvc5-gDURdy-247" value="CHOOSE CAT" style="edgeLabel;html=1;align=center;verticalAlign=middle;resizable=0;points=[];fontSize=12;fontFamily=Helvetica;fontColor=default;labelBackgroundColor=default;" vertex="1" connectable="0" parent="1A1Fid1lJcvc5-gDURdy-246">
          <mxGeometry x="-0.4667" y="2" relative="1" as="geometry">
            <mxPoint as="offset" />
          </mxGeometry>
        </mxCell>
        <mxCell id="1A1Fid1lJcvc5-gDURdy-248" style="edgeStyle=orthogonalEdgeStyle;shape=connector;rounded=0;orthogonalLoop=1;jettySize=auto;html=1;strokeColor=default;align=center;verticalAlign=middle;fontFamily=Helvetica;fontSize=12;fontColor=default;labelBackgroundColor=default;startSize=8;endArrow=classic;endFill=1;endSize=8;" edge="1" parent="1" source="1A1Fid1lJcvc5-gDURdy-241" target="1A1Fid1lJcvc5-gDURdy-177">
          <mxGeometry relative="1" as="geometry">
            <Array as="points">
              <mxPoint x="-132" y="2262" />
              <mxPoint x="-530" y="2262" />
              <mxPoint x="-530" y="1790" />
              <mxPoint x="-528" y="1790" />
              <mxPoint x="-528" y="1380" />
            </Array>
          </mxGeometry>
        </mxCell>
        <mxCell id="1A1Fid1lJcvc5-gDURdy-249" value="CHOOSE ITEM" style="edgeLabel;html=1;align=center;verticalAlign=middle;resizable=0;points=[];fontSize=12;fontFamily=Helvetica;fontColor=default;labelBackgroundColor=default;" vertex="1" connectable="0" parent="1A1Fid1lJcvc5-gDURdy-248">
          <mxGeometry x="0.0998" y="1" relative="1" as="geometry">
            <mxPoint as="offset" />
          </mxGeometry>
        </mxCell>
        <mxCell id="1A1Fid1lJcvc5-gDURdy-259" value="TAKE ORDER" style="text;html=1;align=center;verticalAlign=middle;resizable=0;points=[];autosize=1;strokeColor=#6c8ebf;fillColor=#dae8fc;fontSize=16;" vertex="1" parent="1">
          <mxGeometry x="-319" y="2274" width="121" height="31" as="geometry" />
        </mxCell>
        <mxCell id="1A1Fid1lJcvc5-gDURdy-260" value="UID" style="rounded=0;whiteSpace=wrap;html=1;fillColor=#b1ddf0;strokeColor=#10739e;" vertex="1" parent="1">
          <mxGeometry x="-197" y="2306" width="120" height="60" as="geometry" />
        </mxCell>
        <mxCell id="1A1Fid1lJcvc5-gDURdy-261" value="" style="endArrow=none;dashed=1;html=1;rounded=0;fontSize=12;startSize=8;endSize=8;curved=1;" edge="1" parent="1">
          <mxGeometry width="50" height="50" relative="1" as="geometry">
            <mxPoint x="-163" y="2348" as="sourcePoint" />
            <mxPoint x="-98" y="2348" as="targetPoint" />
          </mxGeometry>
        </mxCell>
        <mxCell id="1A1Fid1lJcvc5-gDURdy-264" value="" style="group;fillColor=#b1ddf0;strokeColor=#10739e;" vertex="1" connectable="0" parent="1">
          <mxGeometry x="-318" y="2306" width="120" height="60" as="geometry" />
        </mxCell>
        <mxCell id="1A1Fid1lJcvc5-gDURdy-262" value="ORDERID" style="rounded=0;whiteSpace=wrap;html=1;fillColor=#b1ddf0;strokeColor=#10739e;" vertex="1" parent="1A1Fid1lJcvc5-gDURdy-264">
          <mxGeometry width="120" height="60" as="geometry" />
        </mxCell>
        <mxCell id="1A1Fid1lJcvc5-gDURdy-263" value="" style="endArrow=none;dashed=1;html=1;rounded=0;fontSize=12;startSize=8;endSize=8;curved=1;" edge="1" parent="1A1Fid1lJcvc5-gDURdy-264">
          <mxGeometry width="50" height="50" relative="1" as="geometry">
            <mxPoint x="34" y="42" as="sourcePoint" />
            <mxPoint x="99" y="42" as="targetPoint" />
          </mxGeometry>
        </mxCell>
        <mxCell id="1A1Fid1lJcvc5-gDURdy-265" style="edgeStyle=orthogonalEdgeStyle;shape=connector;rounded=0;orthogonalLoop=1;jettySize=auto;html=1;entryX=0.342;entryY=0.975;entryDx=0;entryDy=0;entryPerimeter=0;strokeColor=default;align=center;verticalAlign=middle;fontFamily=Helvetica;fontSize=12;fontColor=default;labelBackgroundColor=default;startSize=8;endArrow=classic;endFill=1;endSize=8;" edge="1" parent="1" source="1A1Fid1lJcvc5-gDURdy-262" target="1A1Fid1lJcvc5-gDURdy-183">
          <mxGeometry relative="1" as="geometry">
            <Array as="points">
              <mxPoint x="-258" y="2381" />
              <mxPoint x="429" y="2381" />
              <mxPoint x="429" y="1570" />
              <mxPoint x="-252" y="1570" />
            </Array>
          </mxGeometry>
        </mxCell>
        <mxCell id="1A1Fid1lJcvc5-gDURdy-267" value="TAKE ORDER" style="edgeLabel;html=1;align=center;verticalAlign=middle;resizable=0;points=[];fontSize=12;fontFamily=Helvetica;fontColor=default;labelBackgroundColor=default;" vertex="1" connectable="0" parent="1A1Fid1lJcvc5-gDURdy-265">
          <mxGeometry x="-0.7558" y="-3" relative="1" as="geometry">
            <mxPoint as="offset" />
          </mxGeometry>
        </mxCell>
        <mxCell id="1A1Fid1lJcvc5-gDURdy-268" style="edgeStyle=orthogonalEdgeStyle;shape=connector;rounded=0;orthogonalLoop=1;jettySize=auto;html=1;entryX=0.808;entryY=0.933;entryDx=0;entryDy=0;entryPerimeter=0;strokeColor=default;align=center;verticalAlign=middle;fontFamily=Helvetica;fontSize=12;fontColor=default;labelBackgroundColor=default;startSize=8;endArrow=classic;endFill=1;endSize=8;" edge="1" parent="1">
          <mxGeometry relative="1" as="geometry">
            <mxPoint x="-79" y="2331" as="sourcePoint" />
            <mxPoint x="-191.03999999999996" y="879.98" as="targetPoint" />
            <Array as="points">
              <mxPoint x="544" y="2331" />
              <mxPoint x="544" y="1593" />
              <mxPoint x="540" y="1593" />
              <mxPoint x="540" y="931" />
              <mxPoint x="-191" y="931" />
            </Array>
          </mxGeometry>
        </mxCell>
        <mxCell id="1A1Fid1lJcvc5-gDURdy-269" value="TAKE" style="edgeLabel;html=1;align=center;verticalAlign=middle;resizable=0;points=[];fontSize=12;fontFamily=Helvetica;fontColor=default;labelBackgroundColor=default;" vertex="1" connectable="0" parent="1A1Fid1lJcvc5-gDURdy-268">
          <mxGeometry x="-0.9381" relative="1" as="geometry">
            <mxPoint y="5" as="offset" />
          </mxGeometry>
        </mxCell>
        <mxCell id="1A1Fid1lJcvc5-gDURdy-271" value="TRACK BY USER" style="text;html=1;align=center;verticalAlign=middle;resizable=0;points=[];autosize=1;strokeColor=#6c8ebf;fillColor=#dae8fc;fontSize=16;" vertex="1" parent="1">
          <mxGeometry x="-329" y="2409" width="147" height="31" as="geometry" />
        </mxCell>
        <mxCell id="1A1Fid1lJcvc5-gDURdy-273" value="END LOCATION" style="rounded=0;whiteSpace=wrap;html=1;fillColor=#d0cee2;strokeColor=#56517e;" vertex="1" parent="1">
          <mxGeometry x="34" y="2442" width="120" height="60" as="geometry" />
        </mxCell>
        <mxCell id="1A1Fid1lJcvc5-gDURdy-274" value="" style="group" vertex="1" connectable="0" parent="1">
          <mxGeometry x="-87.5" y="2442" width="120" height="60" as="geometry" />
        </mxCell>
        <mxCell id="1A1Fid1lJcvc5-gDURdy-275" value="DEL-ID" style="rounded=0;whiteSpace=wrap;html=1;fillColor=#b1ddf0;strokeColor=#10739e;" vertex="1" parent="1A1Fid1lJcvc5-gDURdy-274">
          <mxGeometry width="120" height="60" as="geometry" />
        </mxCell>
        <mxCell id="1A1Fid1lJcvc5-gDURdy-276" value="" style="endArrow=none;dashed=1;html=1;rounded=0;fontSize=12;startSize=8;endSize=8;curved=1;" edge="1" parent="1A1Fid1lJcvc5-gDURdy-274">
          <mxGeometry width="50" height="50" relative="1" as="geometry">
            <mxPoint x="34" y="42" as="sourcePoint" />
            <mxPoint x="99" y="42" as="targetPoint" />
          </mxGeometry>
        </mxCell>
        <mxCell id="1A1Fid1lJcvc5-gDURdy-278" value="TRACK BY PROVIDER" style="text;html=1;align=center;verticalAlign=middle;resizable=0;points=[];autosize=1;strokeColor=#6c8ebf;fillColor=#dae8fc;fontSize=16;" vertex="1" parent="1">
          <mxGeometry x="-338.5" y="2529" width="186" height="31" as="geometry" />
        </mxCell>
        <mxCell id="1A1Fid1lJcvc5-gDURdy-284" value="" style="group" vertex="1" connectable="0" parent="1">
          <mxGeometry x="-207.5" y="2442" width="120" height="60" as="geometry" />
        </mxCell>
        <mxCell id="1A1Fid1lJcvc5-gDURdy-285" value="ORDERID" style="rounded=0;whiteSpace=wrap;html=1;fillColor=#b1ddf0;strokeColor=#10739e;" vertex="1" parent="1A1Fid1lJcvc5-gDURdy-284">
          <mxGeometry width="120" height="60" as="geometry" />
        </mxCell>
        <mxCell id="1A1Fid1lJcvc5-gDURdy-286" value="" style="endArrow=none;dashed=1;html=1;rounded=0;fontSize=12;startSize=8;endSize=8;curved=1;" edge="1" parent="1A1Fid1lJcvc5-gDURdy-284">
          <mxGeometry width="50" height="50" relative="1" as="geometry">
            <mxPoint x="34" y="42" as="sourcePoint" />
            <mxPoint x="99" y="42" as="targetPoint" />
          </mxGeometry>
        </mxCell>
        <mxCell id="1A1Fid1lJcvc5-gDURdy-287" value="" style="group;fillColor=#b1ddf0;strokeColor=#10739e;" vertex="1" connectable="0" parent="1">
          <mxGeometry x="-329" y="2442" width="120" height="60" as="geometry" />
        </mxCell>
        <mxCell id="1A1Fid1lJcvc5-gDURdy-288" value="UID" style="rounded=0;whiteSpace=wrap;html=1;fillColor=#b1ddf0;strokeColor=#10739e;" vertex="1" parent="1A1Fid1lJcvc5-gDURdy-287">
          <mxGeometry width="120" height="60" as="geometry" />
        </mxCell>
        <mxCell id="1A1Fid1lJcvc5-gDURdy-289" value="" style="endArrow=none;dashed=1;html=1;rounded=0;fontSize=12;startSize=8;endSize=8;curved=1;" edge="1" parent="1A1Fid1lJcvc5-gDURdy-287">
          <mxGeometry width="50" height="50" relative="1" as="geometry">
            <mxPoint x="34" y="42" as="sourcePoint" />
            <mxPoint x="99" y="42" as="targetPoint" />
          </mxGeometry>
        </mxCell>
        <mxCell id="1A1Fid1lJcvc5-gDURdy-291" value="START LOCATION" style="rounded=0;whiteSpace=wrap;html=1;fillColor=#d0cee2;strokeColor=#56517e;" vertex="1" parent="1">
          <mxGeometry x="27" y="2567" width="120" height="60" as="geometry" />
        </mxCell>
        <mxCell id="1A1Fid1lJcvc5-gDURdy-292" value="" style="group;fillColor=#b1ddf0;strokeColor=#10739e;" vertex="1" connectable="0" parent="1">
          <mxGeometry x="-94.5" y="2567" width="120" height="60" as="geometry" />
        </mxCell>
        <mxCell id="1A1Fid1lJcvc5-gDURdy-293" value="DEL-ID" style="rounded=0;whiteSpace=wrap;html=1;fillColor=#b1ddf0;strokeColor=#10739e;" vertex="1" parent="1A1Fid1lJcvc5-gDURdy-292">
          <mxGeometry width="120" height="60" as="geometry" />
        </mxCell>
        <mxCell id="1A1Fid1lJcvc5-gDURdy-294" value="" style="endArrow=none;dashed=1;html=1;rounded=0;fontSize=12;startSize=8;endSize=8;curved=1;" edge="1" parent="1A1Fid1lJcvc5-gDURdy-292">
          <mxGeometry width="50" height="50" relative="1" as="geometry">
            <mxPoint x="34" y="42" as="sourcePoint" />
            <mxPoint x="99" y="42" as="targetPoint" />
          </mxGeometry>
        </mxCell>
        <mxCell id="1A1Fid1lJcvc5-gDURdy-295" value="" style="group;fillColor=#b1ddf0;strokeColor=#10739e;" vertex="1" connectable="0" parent="1">
          <mxGeometry x="-214.5" y="2567" width="120" height="60" as="geometry" />
        </mxCell>
        <mxCell id="1A1Fid1lJcvc5-gDURdy-296" value="ORDERID" style="rounded=0;whiteSpace=wrap;html=1;fillColor=#b1ddf0;strokeColor=#10739e;" vertex="1" parent="1A1Fid1lJcvc5-gDURdy-295">
          <mxGeometry width="120" height="60" as="geometry" />
        </mxCell>
        <mxCell id="1A1Fid1lJcvc5-gDURdy-297" value="" style="endArrow=none;dashed=1;html=1;rounded=0;fontSize=12;startSize=8;endSize=8;curved=1;" edge="1" parent="1A1Fid1lJcvc5-gDURdy-295">
          <mxGeometry width="50" height="50" relative="1" as="geometry">
            <mxPoint x="34" y="42" as="sourcePoint" />
            <mxPoint x="99" y="42" as="targetPoint" />
          </mxGeometry>
        </mxCell>
        <mxCell id="1A1Fid1lJcvc5-gDURdy-298" value="" style="group;fillColor=#b1ddf0;strokeColor=#10739e;" vertex="1" connectable="0" parent="1">
          <mxGeometry x="-336" y="2567" width="120" height="60" as="geometry" />
        </mxCell>
        <mxCell id="1A1Fid1lJcvc5-gDURdy-299" value="PID" style="rounded=0;whiteSpace=wrap;html=1;fillColor=#b1ddf0;strokeColor=#10739e;" vertex="1" parent="1A1Fid1lJcvc5-gDURdy-298">
          <mxGeometry width="120" height="60" as="geometry" />
        </mxCell>
        <mxCell id="1A1Fid1lJcvc5-gDURdy-300" value="" style="endArrow=none;dashed=1;html=1;rounded=0;fontSize=12;startSize=8;endSize=8;curved=1;" edge="1" parent="1A1Fid1lJcvc5-gDURdy-298">
          <mxGeometry width="50" height="50" relative="1" as="geometry">
            <mxPoint x="34" y="42" as="sourcePoint" />
            <mxPoint x="99" y="42" as="targetPoint" />
          </mxGeometry>
        </mxCell>
        <mxCell id="1A1Fid1lJcvc5-gDURdy-301" style="edgeStyle=orthogonalEdgeStyle;shape=connector;rounded=0;orthogonalLoop=1;jettySize=auto;html=1;entryX=0.308;entryY=0.983;entryDx=0;entryDy=0;entryPerimeter=0;strokeColor=default;align=center;verticalAlign=middle;fontFamily=Helvetica;fontSize=12;fontColor=default;labelBackgroundColor=default;startSize=8;endArrow=classic;endFill=1;endSize=8;" edge="1" parent="1" source="1A1Fid1lJcvc5-gDURdy-288" target="1A1Fid1lJcvc5-gDURdy-158">
          <mxGeometry relative="1" as="geometry">
            <Array as="points">
              <mxPoint x="-597" y="2467" />
              <mxPoint x="-597" y="903" />
              <mxPoint x="-249" y="903" />
            </Array>
          </mxGeometry>
        </mxCell>
        <mxCell id="1A1Fid1lJcvc5-gDURdy-302" value="USER TRACK" style="edgeLabel;html=1;align=center;verticalAlign=middle;resizable=0;points=[];fontSize=12;fontFamily=Helvetica;fontColor=default;labelBackgroundColor=default;" vertex="1" connectable="0" parent="1A1Fid1lJcvc5-gDURdy-301">
          <mxGeometry x="-0.8964" y="1" relative="1" as="geometry">
            <mxPoint as="offset" />
          </mxGeometry>
        </mxCell>
        <mxCell id="1A1Fid1lJcvc5-gDURdy-303" style="edgeStyle=orthogonalEdgeStyle;shape=connector;rounded=0;orthogonalLoop=1;jettySize=auto;html=1;entryX=0.15;entryY=1.058;entryDx=0;entryDy=0;entryPerimeter=0;strokeColor=default;align=center;verticalAlign=middle;fontFamily=Helvetica;fontSize=12;fontColor=default;labelBackgroundColor=default;startSize=8;endArrow=classic;endFill=1;endSize=8;" edge="1" parent="1" source="1A1Fid1lJcvc5-gDURdy-285" target="1A1Fid1lJcvc5-gDURdy-183">
          <mxGeometry relative="1" as="geometry">
            <Array as="points">
              <mxPoint x="-148" y="2510" />
              <mxPoint x="-685" y="2510" />
              <mxPoint x="-685" y="1558" />
              <mxPoint x="-275" y="1558" />
            </Array>
          </mxGeometry>
        </mxCell>
        <mxCell id="1A1Fid1lJcvc5-gDURdy-304" value="TRACK ORDER BY USER" style="edgeLabel;html=1;align=center;verticalAlign=middle;resizable=0;points=[];fontSize=12;fontFamily=Helvetica;fontColor=default;labelBackgroundColor=default;" vertex="1" connectable="0" parent="1A1Fid1lJcvc5-gDURdy-303">
          <mxGeometry x="-0.6145" y="1" relative="1" as="geometry">
            <mxPoint as="offset" />
          </mxGeometry>
        </mxCell>
        <mxCell id="1A1Fid1lJcvc5-gDURdy-305" style="edgeStyle=orthogonalEdgeStyle;shape=connector;rounded=0;orthogonalLoop=1;jettySize=auto;html=1;strokeColor=default;align=center;verticalAlign=middle;fontFamily=Helvetica;fontSize=12;fontColor=default;labelBackgroundColor=default;startSize=8;endArrow=classic;endFill=1;endSize=8;" edge="1" parent="1" source="1A1Fid1lJcvc5-gDURdy-275" target="1A1Fid1lJcvc5-gDURdy-200">
          <mxGeometry relative="1" as="geometry">
            <Array as="points">
              <mxPoint x="-27" y="2517" />
              <mxPoint x="294" y="2517" />
              <mxPoint x="294" y="1963" />
              <mxPoint x="-259" y="1963" />
            </Array>
          </mxGeometry>
        </mxCell>
        <mxCell id="1A1Fid1lJcvc5-gDURdy-306" value="TRACK DELIVIRY" style="edgeLabel;html=1;align=center;verticalAlign=middle;resizable=0;points=[];fontSize=12;fontFamily=Helvetica;fontColor=default;labelBackgroundColor=default;" vertex="1" connectable="0" parent="1A1Fid1lJcvc5-gDURdy-305">
          <mxGeometry x="-0.7549" relative="1" as="geometry">
            <mxPoint as="offset" />
          </mxGeometry>
        </mxCell>
        <mxCell id="1A1Fid1lJcvc5-gDURdy-308" style="edgeStyle=orthogonalEdgeStyle;shape=connector;rounded=0;orthogonalLoop=1;jettySize=auto;html=1;entryX=0.25;entryY=1;entryDx=0;entryDy=0;strokeColor=default;align=center;verticalAlign=middle;fontFamily=Helvetica;fontSize=12;fontColor=default;labelBackgroundColor=default;startSize=8;endArrow=classic;endFill=1;endSize=8;" edge="1" parent="1" source="1A1Fid1lJcvc5-gDURdy-299" target="1A1Fid1lJcvc5-gDURdy-188">
          <mxGeometry relative="1" as="geometry">
            <Array as="points">
              <mxPoint x="-276" y="2650" />
              <mxPoint x="622" y="2650" />
              <mxPoint x="622" y="1696" />
              <mxPoint x="-260" y="1696" />
            </Array>
          </mxGeometry>
        </mxCell>
        <mxCell id="1A1Fid1lJcvc5-gDURdy-309" value="PROVIDER TRACK" style="edgeLabel;html=1;align=center;verticalAlign=middle;resizable=0;points=[];fontSize=12;fontFamily=Helvetica;fontColor=default;labelBackgroundColor=default;" vertex="1" connectable="0" parent="1A1Fid1lJcvc5-gDURdy-308">
          <mxGeometry x="-0.7465" y="-1" relative="1" as="geometry">
            <mxPoint as="offset" />
          </mxGeometry>
        </mxCell>
        <mxCell id="1A1Fid1lJcvc5-gDURdy-310" style="edgeStyle=orthogonalEdgeStyle;shape=connector;rounded=0;orthogonalLoop=1;jettySize=auto;html=1;entryX=0.75;entryY=0.892;entryDx=0;entryDy=0;entryPerimeter=0;strokeColor=default;align=center;verticalAlign=middle;fontFamily=Helvetica;fontSize=12;fontColor=default;labelBackgroundColor=default;startSize=8;endArrow=classic;endFill=1;endSize=8;" edge="1" parent="1" source="1A1Fid1lJcvc5-gDURdy-296" target="1A1Fid1lJcvc5-gDURdy-183">
          <mxGeometry relative="1" as="geometry">
            <Array as="points">
              <mxPoint x="-154" y="2693" />
              <mxPoint x="495" y="2693" />
              <mxPoint x="495" y="1583" />
              <mxPoint x="-203" y="1583" />
            </Array>
          </mxGeometry>
        </mxCell>
        <mxCell id="1A1Fid1lJcvc5-gDURdy-311" value="ORDER TRACK BY PRO" style="edgeLabel;html=1;align=center;verticalAlign=middle;resizable=0;points=[];fontSize=12;fontFamily=Helvetica;fontColor=default;labelBackgroundColor=default;" vertex="1" connectable="0" parent="1A1Fid1lJcvc5-gDURdy-310">
          <mxGeometry x="-0.7596" y="-1" relative="1" as="geometry">
            <mxPoint as="offset" />
          </mxGeometry>
        </mxCell>
        <mxCell id="1A1Fid1lJcvc5-gDURdy-312" style="edgeStyle=orthogonalEdgeStyle;shape=connector;rounded=0;orthogonalLoop=1;jettySize=auto;html=1;entryX=0.371;entryY=0.942;entryDx=0;entryDy=0;entryPerimeter=0;strokeColor=default;align=center;verticalAlign=middle;fontFamily=Helvetica;fontSize=12;fontColor=default;labelBackgroundColor=default;startSize=8;endArrow=classic;endFill=1;endSize=8;" edge="1" parent="1" source="1A1Fid1lJcvc5-gDURdy-293" target="1A1Fid1lJcvc5-gDURdy-200">
          <mxGeometry relative="1" as="geometry">
            <Array as="points">
              <mxPoint x="-34" y="2736" />
              <mxPoint x="369" y="2736" />
              <mxPoint x="369" y="1980" />
              <mxPoint x="-275" y="1980" />
            </Array>
          </mxGeometry>
        </mxCell>
        <mxCell id="1A1Fid1lJcvc5-gDURdy-313" value="DEL BY PRO" style="edgeLabel;html=1;align=center;verticalAlign=middle;resizable=0;points=[];fontSize=12;fontFamily=Helvetica;fontColor=default;labelBackgroundColor=default;" vertex="1" connectable="0" parent="1A1Fid1lJcvc5-gDURdy-312">
          <mxGeometry x="-0.7213" y="-1" relative="1" as="geometry">
            <mxPoint x="1" as="offset" />
          </mxGeometry>
        </mxCell>
        <mxCell id="1A1Fid1lJcvc5-gDURdy-316" style="edgeStyle=orthogonalEdgeStyle;shape=connector;rounded=0;orthogonalLoop=1;jettySize=auto;html=1;exitX=0.5;exitY=0;exitDx=0;exitDy=0;entryX=0.605;entryY=0.956;entryDx=0;entryDy=0;strokeColor=default;align=center;verticalAlign=middle;fontFamily=Helvetica;fontSize=12;fontColor=default;labelBackgroundColor=default;startSize=8;endArrow=classic;endFill=1;endSize=8;entryPerimeter=0;" edge="1" parent="1" source="1A1Fid1lJcvc5-gDURdy-315" target="1A1Fid1lJcvc5-gDURdy-4">
          <mxGeometry relative="1" as="geometry" />
        </mxCell>
        <mxCell id="1A1Fid1lJcvc5-gDURdy-315" value="Total Price" style="ellipse;whiteSpace=wrap;html=1;align=center;" vertex="1" parent="1">
          <mxGeometry x="210" y="446.5" width="60" height="25" as="geometry" />
        </mxCell>
        <mxCell id="1A1Fid1lJcvc5-gDURdy-318" value="Quantity" style="rounded=0;whiteSpace=wrap;html=1;fillColor=#d0cee2;strokeColor=#56517e;" vertex="1" parent="1">
          <mxGeometry x="-112" y="2769" width="120" height="60" as="geometry" />
        </mxCell>
        <mxCell id="1A1Fid1lJcvc5-gDURdy-322" value="" style="group;fillColor=#b1ddf0;strokeColor=#10739e;" vertex="1" connectable="0" parent="1">
          <mxGeometry x="-232" y="2769" width="120" height="60" as="geometry" />
        </mxCell>
        <mxCell id="1A1Fid1lJcvc5-gDURdy-323" value="ORDERID" style="rounded=0;whiteSpace=wrap;html=1;fillColor=#b1ddf0;strokeColor=#10739e;" vertex="1" parent="1A1Fid1lJcvc5-gDURdy-322">
          <mxGeometry width="120" height="60" as="geometry" />
        </mxCell>
        <mxCell id="1A1Fid1lJcvc5-gDURdy-324" value="" style="endArrow=none;dashed=1;html=1;rounded=0;fontSize=12;startSize=8;endSize=8;curved=1;" edge="1" parent="1A1Fid1lJcvc5-gDURdy-322">
          <mxGeometry width="50" height="50" relative="1" as="geometry">
            <mxPoint x="34" y="42" as="sourcePoint" />
            <mxPoint x="99" y="42" as="targetPoint" />
          </mxGeometry>
        </mxCell>
        <mxCell id="1A1Fid1lJcvc5-gDURdy-325" value="" style="group;fillColor=#b1ddf0;strokeColor=#10739e;" vertex="1" connectable="0" parent="1">
          <mxGeometry x="-350" y="2770" width="120" height="60" as="geometry" />
        </mxCell>
        <mxCell id="1A1Fid1lJcvc5-gDURdy-326" value="ITEM-ID" style="rounded=0;whiteSpace=wrap;html=1;fillColor=#b1ddf0;strokeColor=#10739e;" vertex="1" parent="1A1Fid1lJcvc5-gDURdy-325">
          <mxGeometry width="120" height="60" as="geometry" />
        </mxCell>
        <mxCell id="1A1Fid1lJcvc5-gDURdy-327" value="" style="endArrow=none;dashed=1;html=1;rounded=0;fontSize=12;startSize=8;endSize=8;curved=1;" edge="1" parent="1A1Fid1lJcvc5-gDURdy-325">
          <mxGeometry width="50" height="50" relative="1" as="geometry">
            <mxPoint x="34" y="42" as="sourcePoint" />
            <mxPoint x="99" y="42" as="targetPoint" />
          </mxGeometry>
        </mxCell>
        <mxCell id="1A1Fid1lJcvc5-gDURdy-328" value="ITEM-ORDER" style="text;html=1;align=center;verticalAlign=middle;resizable=0;points=[];autosize=1;strokeColor=#6c8ebf;fillColor=#dae8fc;fontSize=16;" vertex="1" parent="1">
          <mxGeometry x="-349" y="2737" width="119" height="31" as="geometry" />
        </mxCell>
        <mxCell id="1A1Fid1lJcvc5-gDURdy-329" value="Price" style="rounded=0;whiteSpace=wrap;html=1;fillColor=#d0cee2;strokeColor=#56517e;" vertex="1" parent="1">
          <mxGeometry x="8" y="2769" width="120" height="60" as="geometry" />
        </mxCell>
        <mxCell id="1A1Fid1lJcvc5-gDURdy-330" style="edgeStyle=orthogonalEdgeStyle;shape=connector;rounded=0;orthogonalLoop=1;jettySize=auto;html=1;exitX=0.5;exitY=1;exitDx=0;exitDy=0;entryX=0.5;entryY=1;entryDx=0;entryDy=0;strokeColor=default;align=center;verticalAlign=middle;fontFamily=Helvetica;fontSize=12;fontColor=default;labelBackgroundColor=default;startSize=8;endArrow=classic;endFill=1;endSize=8;" edge="1" parent="1" source="1A1Fid1lJcvc5-gDURdy-326" target="1A1Fid1lJcvc5-gDURdy-177">
          <mxGeometry relative="1" as="geometry">
            <Array as="points">
              <mxPoint x="-287" y="2875" />
              <mxPoint x="682" y="2875" />
              <mxPoint x="682" y="1429" />
              <mxPoint x="-234" y="1429" />
            </Array>
          </mxGeometry>
        </mxCell>
        <mxCell id="1A1Fid1lJcvc5-gDURdy-333" value="Have ORDER" style="edgeLabel;html=1;align=center;verticalAlign=middle;resizable=0;points=[];fontSize=12;fontFamily=Helvetica;fontColor=default;labelBackgroundColor=default;" vertex="1" connectable="0" parent="1A1Fid1lJcvc5-gDURdy-330">
          <mxGeometry x="-0.7684" y="-3" relative="1" as="geometry">
            <mxPoint x="-1" as="offset" />
          </mxGeometry>
        </mxCell>
        <mxCell id="1A1Fid1lJcvc5-gDURdy-331" style="edgeStyle=orthogonalEdgeStyle;shape=connector;rounded=0;orthogonalLoop=1;jettySize=auto;html=1;exitX=0.5;exitY=1;exitDx=0;exitDy=0;entryX=0;entryY=0.5;entryDx=0;entryDy=0;strokeColor=default;align=center;verticalAlign=middle;fontFamily=Helvetica;fontSize=12;fontColor=default;labelBackgroundColor=default;startSize=8;endArrow=classic;endFill=1;endSize=8;" edge="1" parent="1" source="1A1Fid1lJcvc5-gDURdy-323" target="1A1Fid1lJcvc5-gDURdy-183">
          <mxGeometry relative="1" as="geometry">
            <Array as="points">
              <mxPoint x="-166" y="2914" />
              <mxPoint x="-726" y="2914" />
              <mxPoint x="-726" y="1504" />
            </Array>
          </mxGeometry>
        </mxCell>
        <mxCell id="1A1Fid1lJcvc5-gDURdy-332" value="Have ITEM" style="edgeLabel;html=1;align=center;verticalAlign=middle;resizable=0;points=[];fontSize=12;fontFamily=Helvetica;fontColor=default;labelBackgroundColor=default;" vertex="1" connectable="0" parent="1A1Fid1lJcvc5-gDURdy-331">
          <mxGeometry x="-0.6792" y="-5" relative="1" as="geometry">
            <mxPoint x="1" as="offset" />
          </mxGeometry>
        </mxCell>
      </root>
    </mxGraphModel>
  </diagram>
</mxfile>
